<svg xmlns="http://www.w3.org/2000/svg" version="1.1" xmlns:xlink="http://www.w3.org/1999/xlink" width="1000" height="1000"><metadata><rdf:RDF xmlns:rdf="http://www.w3.org/1999/02/22-rdf-syntax-ns#" xmlns:dc="http://purl.org/dc/elements/1.1/"><rdf:Description><dc:creator>RealFaviconGenerator</dc:creator><dc:source>https://realfavicongenerator.net</dc:source></rdf:Description></rdf:RDF></metadata><style>
    #light-icon {
      display: inline;
    }
    #dark-icon {
      display: none;
    }

    @media (prefers-color-scheme: dark) {
      #light-icon {
        display: none;
      }
      #dark-icon {
        display: inline;
      }
    }
  </style><g id="light-icon"><svg xmlns="http://www.w3.org/2000/svg" version="1.1" xmlns:xlink="http://www.w3.org/1999/xlink" width="1000" height="1000"><g clip-path="url(#SvgjsClipPath1391)"><rect width="1000" height="1000" fill="#000000"></rect><g transform="matrix(8.333333333333334,0,0,8.333333333333334,100,100)"><svg xmlns="http://www.w3.org/2000/svg" version="1.1" width="96" height="96"><path d="M0 0 C0.68900391 0.00064453 1.37800781 0.00128906 2.08789062 0.00195312 C7.17194475 0.04694475 7.17194475 0.04694475 8.3125 1.1875 C9.529375 1.27 10.74625 1.3525 12 1.4375 C18.67068947 2.13572031 25.41164736 3.99436509 31.3125 7.1875 C34.3125 11.96913265 34.3125 11.96913265 34.3125 15.1875 C34.951875 15.744375 35.59125 16.30125 36.25 16.875 C38.93357497 19.88385678 38.94081942 22.24768582 39.3125 26.1875 C39.6425 26.5175 39.9725 26.8475 40.3125 27.1875 C41.34659091 43.13636364 41.34659091 43.13636364 37.3125 49.1875 C35.125 50.125 35.125 50.125 33.3125 50.1875 C33.3125 50.8475 33.3125 51.5075 33.3125 52.1875 C32.72082031 52.35765625 32.12914063 52.5278125 31.51953125 52.703125 C26.26154879 54.30896401 26.26154879 54.30896401 21.75 57.375 C18.19576331 60.01789395 15.66540001 59.48261187 11.3125 59.1875 C11.45357747 60.64630109 11.60052415 62.10453551 11.75 63.5625 C11.83121094 64.37460938 11.91242187 65.18671875 11.99609375 66.0234375 C12.20340114 68.23022805 12.20340114 68.23022805 13.3125 70.1875 C15.32919827 71.32100534 15.32919827 71.32100534 17.3125 72.1875 C17.3125 73.1775 17.3125 74.1675 17.3125 75.1875 C9.3925 75.1875 1.4725 75.1875 -6.6875 75.1875 C-6.6875 74.1975 -6.6875 73.2075 -6.6875 72.1875 C-5.73617187 71.88199219 -5.73617187 71.88199219 -4.765625 71.5703125 C-2.39685435 70.31528129 -2.39685435 70.31528129 -1.859375 67.3671875 C-1.72015625 66.27664062 -1.5809375 65.18609375 -1.4375 64.0625 C-1.28796875 62.96679688 -1.1384375 61.87109375 -0.984375 60.7421875 C-0.88640625 59.89914063 -0.7884375 59.05609375 -0.6875 58.1875 C-3.6171875 58.28515625 -3.6171875 58.28515625 -6.546875 58.3828125 C-9.01707112 58.15742964 -10.50239792 57.33086737 -12.6875 56.1875 C-14.17696979 55.80988794 -15.67841073 55.47691438 -17.1875 55.1875 C-20.3384579 54.5832067 -22.86589175 53.72655905 -25.6875 52.1875 C-25.6875 51.1975 -25.6875 50.2075 -25.6875 49.1875 C-26.326875 49.06375 -26.96625 48.94 -27.625 48.8125 C-28.305625 48.60625 -28.98625 48.4 -29.6875 48.1875 C-30.6875 46.1875 -30.6875 46.1875 -30.5625 42.25 C-30.39470473 39.10121711 -30.39470473 39.10121711 -32.125 36.625 C-32.640625 36.150625 -33.15625 35.67625 -33.6875 35.1875 C-34.67671662 31.37195016 -35.20128989 29.19061359 -33.375 25.625 C-32.818125 24.820625 -32.26125 24.01625 -31.6875 23.1875 C-30.98585358 21.19950182 -30.31377128 19.20051483 -29.6875 17.1875 C-28.6875 15.1875 -28.6875 15.1875 -25.6875 14.1875 C-24.99491771 12.19632592 -24.33002365 10.1953864 -23.6875 8.1875 C-21.52178203 5.49516367 -19.52825548 4.5924447 -16.25 3.625 C-12.94883355 2.63965276 -12.94883355 2.63965276 -9.8828125 1.109375 C-6.6447614 -0.250376 -3.44976019 -0.06236484 0 0 Z " fill="#64961C" transform="translate(42.6875,10.8125)"></path><path d="M0 0 C0.68900391 0.00064453 1.37800781 0.00128906 2.08789062 0.00195312 C7.17194475 0.04694475 7.17194475 0.04694475 8.3125 1.1875 C9.82719448 1.41942865 11.35004562 1.59965238 12.875 1.75 C13.70128906 1.83378906 14.52757812 1.91757813 15.37890625 2.00390625 C16.01699219 2.06449219 16.65507813 2.12507812 17.3125 2.1875 C17.3125 2.5175 17.3125 2.8475 17.3125 3.1875 C14.6725 3.8475 12.0325 4.5075 9.3125 5.1875 C9.3125 4.5275 9.3125 3.8675 9.3125 3.1875 C7.68669034 3.30148665 6.06182843 3.42905659 4.4375 3.5625 C3.53257813 3.63210938 2.62765625 3.70171875 1.6953125 3.7734375 C-0.86691903 3.98318132 -0.86691903 3.98318132 -2.6875 6.1875 C-4.8515625 6.6015625 -4.8515625 6.6015625 -7.3125 6.8125 C-8.12976563 6.88726563 -8.94703125 6.96203125 -9.7890625 7.0390625 C-10.41554688 7.08804687 -11.04203125 7.13703125 -11.6875 7.1875 C-11.6875 6.5275 -11.6875 5.8675 -11.6875 5.1875 C-16.01979715 6.0479139 -16.01979715 6.0479139 -19.6875 8.1875 C-19.72830783 10.18708364 -19.73004356 12.18795254 -19.6875 14.1875 C-20.47125 14.47625 -21.255 14.765 -22.0625 15.0625 C-24.78421632 16.03662254 -24.78421632 16.03662254 -26.6875 18.1875 C-27.08797444 20.51025177 -27.4272104 22.84489357 -27.6875 25.1875 C-27.0275 25.5175 -26.3675 25.8475 -25.6875 26.1875 C-27.6675 27.1775 -27.6675 27.1775 -29.6875 28.1875 C-28.53576645 30.65550047 -27.63966435 32.23533565 -25.6875 34.1875 C-23.47677023 34.43003813 -23.47677023 34.43003813 -21.0625 34.3125 C-20.24523438 34.29445312 -19.42796875 34.27640625 -18.5859375 34.2578125 C-17.95945312 34.23460937 -17.33296875 34.21140625 -16.6875 34.1875 C-16.0275 32.8675 -15.3675 31.5475 -14.6875 30.1875 C-14.6875 31.8375 -14.6875 33.4875 -14.6875 35.1875 C-16.3375 35.8475 -17.9875 36.5075 -19.6875 37.1875 C-20.0175 39.4975 -20.3475 41.8075 -20.6875 44.1875 C-19.2953125 44.4659375 -19.2953125 44.4659375 -17.875 44.75 C-14.6875 46.1875 -14.6875 46.1875 -12.875 49.75 C-12.483125 50.884375 -12.09125 52.01875 -11.6875 53.1875 C-10.63149622 54.46620382 -10.63149622 54.46620382 -8.21875 54.3203125 C-7.2184375 54.31773438 -6.218125 54.31515625 -5.1875 54.3125 C-3.68703125 54.31636719 -3.68703125 54.31636719 -2.15625 54.3203125 C0.25649622 54.46620382 0.25649622 54.46620382 1.3125 53.1875 C1.68302339 48.01014323 1.68302339 48.01014323 0.3125 43.1875 C1.6325 43.1875 2.9525 43.1875 4.3125 43.1875 C4.3125 42.5275 4.3125 41.8675 4.3125 41.1875 C4.951875 40.754375 5.59125 40.32125 6.25 39.875 C8.81177596 37.77900148 8.96471564 36.40450528 9.3125 33.1875 C12.2825 33.6825 12.2825 33.6825 15.3125 34.1875 C16.3025 31.8775 17.2925 29.5675 18.3125 27.1875 C18.6425 27.1875 18.9725 27.1875 19.3125 27.1875 C19.3125 30.1575 19.3125 33.1275 19.3125 36.1875 C17.3325 36.6825 17.3325 36.6825 15.3125 37.1875 C15.3125 37.8475 15.3125 38.5075 15.3125 39.1875 C14.6525 39.6 13.9925 40.0125 13.3125 40.4375 C10.97134038 42.08472238 10.97134038 42.08472238 11 45.25 C11.13174034 48.11771928 11.13174034 48.11771928 12.3125 50.1875 C19.60746251 50.63144131 19.60746251 50.63144131 26.3125 48.1875 C27.19943303 46.14644361 27.19943303 46.14644361 27.3125 44.1875 C28.26125 44.22875 29.21 44.27 30.1875 44.3125 C33.41494856 44.53723818 33.41494856 44.53723818 35.3125 42.1875 C35.71297444 39.86474823 36.0522104 37.53010643 36.3125 35.1875 C35.6525 35.1875 34.9925 35.1875 34.3125 35.1875 C34.3125 33.5375 34.3125 31.8875 34.3125 30.1875 C32.8275 30.6825 32.8275 30.6825 31.3125 31.1875 C30.8175 28.2175 30.8175 28.2175 30.3125 25.1875 C31.9625 24.5275 33.6125 23.8675 35.3125 23.1875 C35.3125 20.8775 35.3125 18.5675 35.3125 16.1875 C38.09465593 18.24387612 38.32938361 19.28542496 38.9375 22.8125 C39.06125 23.92625 39.185 25.04 39.3125 26.1875 C39.6425 26.5175 39.9725 26.8475 40.3125 27.1875 C41.34659091 43.13636364 41.34659091 43.13636364 37.3125 49.1875 C35.125 50.125 35.125 50.125 33.3125 50.1875 C33.3125 50.8475 33.3125 51.5075 33.3125 52.1875 C32.72082031 52.35765625 32.12914063 52.5278125 31.51953125 52.703125 C26.26154879 54.30896401 26.26154879 54.30896401 21.75 57.375 C18.19576331 60.01789395 15.66540001 59.48261187 11.3125 59.1875 C11.45357747 60.64630109 11.60052415 62.10453551 11.75 63.5625 C11.83121094 64.37460938 11.91242187 65.18671875 11.99609375 66.0234375 C12.20340114 68.23022805 12.20340114 68.23022805 13.3125 70.1875 C15.32919827 71.32100534 15.32919827 71.32100534 17.3125 72.1875 C17.3125 73.1775 17.3125 74.1675 17.3125 75.1875 C9.3925 75.1875 1.4725 75.1875 -6.6875 75.1875 C-6.6875 74.1975 -6.6875 73.2075 -6.6875 72.1875 C-5.73617187 71.88199219 -5.73617187 71.88199219 -4.765625 71.5703125 C-2.39685435 70.31528129 -2.39685435 70.31528129 -1.859375 67.3671875 C-1.72015625 66.27664062 -1.5809375 65.18609375 -1.4375 64.0625 C-1.28796875 62.96679688 -1.1384375 61.87109375 -0.984375 60.7421875 C-0.88640625 59.89914063 -0.7884375 59.05609375 -0.6875 58.1875 C-3.6171875 58.28515625 -3.6171875 58.28515625 -6.546875 58.3828125 C-9.01707112 58.15742964 -10.50239792 57.33086737 -12.6875 56.1875 C-14.17696979 55.80988794 -15.67841073 55.47691438 -17.1875 55.1875 C-20.3384579 54.5832067 -22.86589175 53.72655905 -25.6875 52.1875 C-25.6875 51.1975 -25.6875 50.2075 -25.6875 49.1875 C-26.326875 49.06375 -26.96625 48.94 -27.625 48.8125 C-28.305625 48.60625 -28.98625 48.4 -29.6875 48.1875 C-30.6875 46.1875 -30.6875 46.1875 -30.5625 42.25 C-30.39470473 39.10121711 -30.39470473 39.10121711 -32.125 36.625 C-32.640625 36.150625 -33.15625 35.67625 -33.6875 35.1875 C-34.67671662 31.37195016 -35.20128989 29.19061359 -33.375 25.625 C-32.818125 24.820625 -32.26125 24.01625 -31.6875 23.1875 C-30.98585358 21.19950182 -30.31377128 19.20051483 -29.6875 17.1875 C-28.6875 15.1875 -28.6875 15.1875 -25.6875 14.1875 C-24.99491771 12.19632592 -24.33002365 10.1953864 -23.6875 8.1875 C-21.52178203 5.49516367 -19.52825548 4.5924447 -16.25 3.625 C-12.94883355 2.63965276 -12.94883355 2.63965276 -9.8828125 1.109375 C-6.6447614 -0.250376 -3.44976019 -0.06236484 0 0 Z " fill="#4E7513" transform="translate(42.6875,10.8125)"></path><path d="M0 0 C2.64 0.66 5.28 1.32 8 2 C4 3 4 3 2 3 C2 5.97 2 8.94 2 12 C0.3603125 12.37125 0.3603125 12.37125 -1.3125 12.75 C-5.01545791 13.59511476 -5.01545791 13.59511476 -6.375 16 C-8.41934552 18.51611757 -9.42975079 18.38690871 -12.5625 18.875 C-14.93685875 19.22555555 -14.93685875 19.22555555 -17 20 C-18.69165301 22.98283157 -18.69165301 22.98283157 -19 26 C-20.65 26 -22.3 26 -24 26 C-24.66 28.97 -25.32 31.94 -26 35 C-21.34306977 35.41345005 -21.34306977 35.41345005 -17.125 33.8125 C-15.73770965 31.5774211 -15.35012787 29.59094622 -15 27 C-14.01 27 -13.02 27 -12 27 C-11.6330421 33.48292295 -11.6330421 33.48292295 -13.375 35.9375 C-15 37 -15 37 -17 37 C-17 37.66 -17 38.32 -17 39 C-18.485 39.495 -18.485 39.495 -20 40 C-19.505 40.495 -19.505 40.495 -19 41 C-18.72685185 46.73611111 -18.72685185 46.73611111 -19 49 C-21.57603912 51.57603912 -22.79249282 51.3558611 -26.375 51.4375 C-31.58342701 51.34875878 -31.58342701 51.34875878 -34.6875 48.75 C-36 46 -36 46 -36 42 C-36.61875 41.855625 -37.2375 41.71125 -37.875 41.5625 C-40 41 -40 41 -42 40 C-42 37.69 -42 35.38 -42 33 C-40.35 32.34 -38.7 31.68 -37 31 C-37.33 31 -37.66 31 -38 31 C-41 31 -44 31 -47 31 C-47 30.67 -47 30.34 -47 30 C-43.04 29.505 -43.04 29.505 -39 29 C-39 27.02 -39 25.04 -39 23 C-39.99 22.67 -40.98 22.34 -42 22 C-42.33 21.01 -42.66 20.02 -43 19 C-38.68803391 18.05675742 -34.37934119 17.51958285 -30 17 C-29.67 15.02 -29.34 13.04 -29 11 C-27.02 10.67 -25.04 10.34 -23 10 C-22.67 7.69 -22.34 5.38 -22 3 C-19.36 3.66 -16.72 4.32 -14 5 C-13.67 4.01 -13.34 3.02 -13 2 C-12.34 3.32 -11.68 4.64 -11 6 C-13.64 6.66 -16.28 7.32 -19 8 C-19.33 9.32 -19.66 10.64 -20 12 C-23.0625 13.25 -23.0625 13.25 -26 14 C-26.33 15.98 -26.66 17.96 -27 20 C-23.70054409 20.9363921 -23.70054409 20.9363921 -20 21 C-17.29348303 18.43593129 -16.17604084 16.52812251 -15 13 C-14.01 13.99 -13.02 14.98 -12 16 C-7.93975679 13.96197865 -7.93975679 13.96197865 -6 10 C-4.35 9.67 -2.7 9.34 -1 9 C-0.67 6.03 -0.34 3.06 0 0 Z " fill="#5C8A19" transform="translate(64,15)"></path><path d="M0 0 C0.68900391 0.00064453 1.37800781 0.00128906 2.08789062 0.00195312 C7.17194475 0.04694475 7.17194475 0.04694475 8.3125 1.1875 C9.82719448 1.41942865 11.35004562 1.59965238 12.875 1.75 C13.70128906 1.83378906 14.52757812 1.91757813 15.37890625 2.00390625 C16.01699219 2.06449219 16.65507813 2.12507812 17.3125 2.1875 C17.3125 2.5175 17.3125 2.8475 17.3125 3.1875 C14.6725 3.8475 12.0325 4.5075 9.3125 5.1875 C9.3125 4.5275 9.3125 3.8675 9.3125 3.1875 C7.68669034 3.30148665 6.06182843 3.42905659 4.4375 3.5625 C3.53257813 3.63210938 2.62765625 3.70171875 1.6953125 3.7734375 C-0.86691903 3.98318132 -0.86691903 3.98318132 -2.6875 6.1875 C-4.8515625 6.6015625 -4.8515625 6.6015625 -7.3125 6.8125 C-8.12976563 6.88726563 -8.94703125 6.96203125 -9.7890625 7.0390625 C-10.41554688 7.08804687 -11.04203125 7.13703125 -11.6875 7.1875 C-11.6875 6.5275 -11.6875 5.8675 -11.6875 5.1875 C-16.01979715 6.0479139 -16.01979715 6.0479139 -19.6875 8.1875 C-19.72830783 10.18708364 -19.73004356 12.18795254 -19.6875 14.1875 C-20.47125 14.47625 -21.255 14.765 -22.0625 15.0625 C-24.78421632 16.03662254 -24.78421632 16.03662254 -26.6875 18.1875 C-27.08797444 20.51025177 -27.4272104 22.84489357 -27.6875 25.1875 C-27.0275 25.5175 -26.3675 25.8475 -25.6875 26.1875 C-27.6675 27.1775 -27.6675 27.1775 -29.6875 28.1875 C-28.53576645 30.65550047 -27.63966435 32.23533565 -25.6875 34.1875 C-23.47677023 34.43003813 -23.47677023 34.43003813 -21.0625 34.3125 C-20.24523438 34.29445312 -19.42796875 34.27640625 -18.5859375 34.2578125 C-17.95945312 34.23460937 -17.33296875 34.21140625 -16.6875 34.1875 C-16.0275 32.8675 -15.3675 31.5475 -14.6875 30.1875 C-14.6875 31.8375 -14.6875 33.4875 -14.6875 35.1875 C-16.3375 35.8475 -17.9875 36.5075 -19.6875 37.1875 C-20.0175 39.4975 -20.3475 41.8075 -20.6875 44.1875 C-19.2953125 44.4659375 -19.2953125 44.4659375 -17.875 44.75 C-14.6875 46.1875 -14.6875 46.1875 -12.875 49.75 C-12.483125 50.884375 -12.09125 52.01875 -11.6875 53.1875 C-9.94793342 54.92706658 -7.4938378 54.55940386 -5.125 54.75 C-4.11308594 54.83378906 -3.10117187 54.91757813 -2.05859375 55.00390625 C-1.27613281 55.06449219 -0.49367187 55.12507813 0.3125 55.1875 C-0.0175 56.1775 -0.3475 57.1675 -0.6875 58.1875 C-1.925 58.22875 -3.1625 58.27 -4.4375 58.3125 C-5.13359375 58.33570313 -5.8296875 58.35890625 -6.546875 58.3828125 C-9.01707112 58.15742964 -10.50239792 57.33086737 -12.6875 56.1875 C-14.17696979 55.80988794 -15.67841073 55.47691438 -17.1875 55.1875 C-20.3384579 54.5832067 -22.86589175 53.72655905 -25.6875 52.1875 C-25.6875 51.1975 -25.6875 50.2075 -25.6875 49.1875 C-26.326875 49.06375 -26.96625 48.94 -27.625 48.8125 C-28.305625 48.60625 -28.98625 48.4 -29.6875 48.1875 C-30.6875 46.1875 -30.6875 46.1875 -30.5625 42.25 C-30.39470473 39.10121711 -30.39470473 39.10121711 -32.125 36.625 C-32.640625 36.150625 -33.15625 35.67625 -33.6875 35.1875 C-34.67671662 31.37195016 -35.20128989 29.19061359 -33.375 25.625 C-32.818125 24.820625 -32.26125 24.01625 -31.6875 23.1875 C-30.98585358 21.19950182 -30.31377128 19.20051483 -29.6875 17.1875 C-28.6875 15.1875 -28.6875 15.1875 -25.6875 14.1875 C-24.99491771 12.19632592 -24.33002365 10.1953864 -23.6875 8.1875 C-21.52178203 5.49516367 -19.52825548 4.5924447 -16.25 3.625 C-12.94883355 2.63965276 -12.94883355 2.63965276 -9.8828125 1.109375 C-6.6447614 -0.250376 -3.44976019 -0.06236484 0 0 Z " fill="#558016" transform="translate(42.6875,10.8125)"></path><path d="M0 0 C2.875 -0.125 2.875 -0.125 6 0 C8.9746758 2.9746758 8.68381413 6.48922274 9.0625 10.5 C9.39473537 15.91466235 9.39473537 15.91466235 11 21 C13.01669827 22.13350534 13.01669827 22.13350534 15 23 C15 23.99 15 24.98 15 26 C7.08 26 -0.84 26 -9 26 C-9 25.01 -9 24.02 -9 23 C-8.37351563 22.83113281 -7.74703125 22.66226563 -7.1015625 22.48828125 C-4.61796189 21.0617543 -4.61796189 21.0617543 -4.0234375 17.48046875 C-3.78961014 16.05226184 -3.5741267 14.62095693 -3.375 13.1875 C-2.6738305 8.57564107 -1.96534727 4.27505025 0 0 Z " fill="#543C0F" transform="translate(45,60)"></path><path d="M0 0 C4.89727149 4.00685849 5.28614171 10.05118095 6 16 C0.17521449 19.03901852 -4.48208608 19.3540919 -11 19 C-11.433125 20.670625 -11.433125 20.670625 -11.875 22.375 C-13 26 -13 26 -15 28 C-17.625 27.625 -17.625 27.625 -20 27 C-19.360625 26.67 -18.72125 26.34 -18.0625 26 C-14.9447236 22.97670168 -15.27956936 20.26343276 -15 16 C-12.36 15.67 -9.72 15.34 -7 15 C-6.7834375 13.824375 -6.7834375 13.824375 -6.5625 12.625 C-6 10 -6 10 -5 8 C-1.9375 7.375 -1.9375 7.375 1 7 C0.67 4.69 0.34 2.38 0 0 Z " fill="#5F8E1A" transform="translate(73,18)"></path><path d="M0 0 C0.66 0 1.32 0 2 0 C2.2475 0.969375 2.495 1.93875 2.75 2.9375 C3.1625 3.948125 3.575 4.95875 4 6 C6.03243548 6.96877057 6.03243548 6.96877057 8 7 C7.01 7.495 7.01 7.495 6 8 C5.88679144 13.08303686 5.88679144 13.08303686 7 18 C8.98 18.33 10.96 18.66 13 19 C12.67 17.68 12.34 16.36 12 15 C12.763125 15.309375 13.52625 15.61875 14.3125 15.9375 C16.18789677 16.67893593 18.08684652 17.36228217 20 18 C21.06902939 20.30252483 22.07175817 22.6372026 23 25 C24.73956658 26.73956658 27.1936622 26.37190386 29.5625 26.5625 C30.57441406 26.64628906 31.58632813 26.73007813 32.62890625 26.81640625 C33.41136719 26.87699219 34.19382813 26.93757813 35 27 C34.505 28.485 34.505 28.485 34 30 C32.14375 30.061875 32.14375 30.061875 30.25 30.125 C29.55390625 30.14820312 28.8578125 30.17140625 28.140625 30.1953125 C25.67042888 29.96992964 24.18510208 29.14336737 22 28 C20.51053021 27.62238794 19.00908927 27.28941438 17.5 27 C14.3490421 26.3957067 11.82160825 25.53905905 9 24 C9 23.01 9 22.02 9 21 C8.360625 20.87625 7.72125 20.7525 7.0625 20.625 C6.0415625 20.315625 6.0415625 20.315625 5 20 C4 18 4 18 4.125 14.0625 C4.29279527 10.91371711 4.29279527 10.91371711 2.5625 8.4375 C2.046875 7.963125 1.53125 7.48875 1 7 C0.3125 3.3125 0.3125 3.3125 0 0 Z " fill="#446610" transform="translate(8,39)"></path><path d="M0 0 C0.33 0.99 0.66 1.98 1 3 C-0.28965176 4.37562854 -1.62689293 5.70766393 -3 7 C-3.66 7 -4.32 7 -5 7 C-5 7.66 -5 8.32 -5 9 C-5.59167969 9.17015625 -6.18335937 9.3403125 -6.79296875 9.515625 C-12.05095121 11.12146401 -12.05095121 11.12146401 -16.5625 14.1875 C-20.11673669 16.83039395 -22.64709999 16.29511187 -27 16 C-27.33 13.69 -27.66 11.38 -28 9 C-26.57107422 8.97873047 -26.57107422 8.97873047 -25.11328125 8.95703125 C-17.48461226 8.96144542 -17.48461226 8.96144542 -11.0625 5.5 C-10.381875 4.675 -9.70125 3.85 -9 3 C-5.3125 2.3125 -5.3125 2.3125 -2 2 C-1.34 1.34 -0.68 0.68 0 0 Z " fill="#45670F" transform="translate(81,54)"></path><path d="M0 0 C1.32 0 2.64 0 4 0 C4.13277344 0.83144531 4.26554687 1.66289063 4.40234375 2.51953125 C4.57894531 3.60621094 4.75554688 4.69289063 4.9375 5.8125 C5.11152344 6.89144531 5.28554688 7.97039062 5.46484375 9.08203125 C5.93871921 12.04933356 5.93871921 12.04933356 7 15 C7.99 15.33 8.98 15.66 10 16 C10 16.33 10 16.66 10 17 C5.05 17 0.1 17 -5 17 C-4.67 16.34 -4.34 15.68 -4 15 C-3.34 15 -2.68 15 -2 15 C-1.34 10.05 -0.68 5.1 0 0 Z " fill="#92671C" transform="translate(46,69)"></path><path d="M0 0 C8.3984375 -0.1953125 8.3984375 -0.1953125 11 0 C13 2 13 2 13.125 4.625 C13.08375 5.40875 13.0425 6.1925 13 7 C11.046875 7.71614583 9.09375 8.43229167 7.140625 9.1484375 C5.04365072 9.9826353 3.01855139 10.99072431 1 12 C0.67 8.04 0.34 4.08 0 0 Z " fill="#6FA520" transform="translate(61,36)"></path><path d="M0 0 C2.64 0.66 5.28 1.32 8 2 C4 3 4 3 2 3 C2 5.97 2 8.94 2 12 C0.3603125 12.37125 0.3603125 12.37125 -1.3125 12.75 C-5.01545791 13.59511476 -5.01545791 13.59511476 -6.375 16 C-8.41934552 18.51611757 -9.42975079 18.38690871 -12.5625 18.875 C-14.93685875 19.22555555 -14.93685875 19.22555555 -17 20 C-18.69165301 22.98283157 -18.69165301 22.98283157 -19 26 C-20.65 26 -22.3 26 -24 26 C-24 25.01 -24 24.02 -24 23 C-23.4225 22.773125 -22.845 22.54625 -22.25 22.3125 C-18.43916226 20.08951132 -16.38070336 17.14211008 -15 13 C-14.01 13.99 -13.02 14.98 -12 16 C-7.93975679 13.96197865 -7.93975679 13.96197865 -6 10 C-4.35 9.67 -2.7 9.34 -1 9 C-0.67 6.03 -0.34 3.06 0 0 Z " fill="#5C8919" transform="translate(64,15)"></path><path d="M0 0 C1.90234375 0.3046875 1.90234375 0.3046875 4 1 C5.17655783 3.35311567 6.11735327 5.54119838 7 8 C8.63639951 12.89009204 8.63639951 12.89009204 12.1875 16.4375 C12.785625 16.623125 13.38375 16.80875 14 17 C14 17.99 14 18.98 14 20 C9.65926012 19.51769557 7.72799592 18.4099949 5 15 C4.390625 11.984375 4.390625 11.984375 4.25 8.75 C4.19328125 7.67234375 4.1365625 6.5946875 4.078125 5.484375 C4.05234375 4.66453125 4.0265625 3.8446875 4 3 C2.68 3 1.36 3 0 3 C-0.06058594 3.83144531 -0.12117188 4.66289063 -0.18359375 5.51953125 C-0.26738281 6.60621094 -0.35117187 7.69289063 -0.4375 8.8125 C-0.51871094 9.89144531 -0.59992187 10.97039062 -0.68359375 12.08203125 C-1 15 -1 15 -2 18 C-5 20 -5 20 -8 20 C-8 19.34 -8 18.68 -8 18 C-7.07960937 17.75636719 -7.07960937 17.75636719 -6.140625 17.5078125 C-2.79291899 15.14975681 -2.55173044 11.67993383 -1.75 7.875 C-1.57726563 7.12089844 -1.40453125 6.36679688 -1.2265625 5.58984375 C-0.80277816 3.72990139 -0.39940976 1.86532855 0 0 Z " fill="#6C4D14" transform="translate(46,66)"></path><path d="M0 0 C3.0625 0.25 3.0625 0.25 6.0625 2.25 C6.53980962 5.97301503 6.2012261 7.04191085 4.0625 10.25 C0.00804358 10.68132515 -1.48720958 10.55019361 -4.9375 8.25 C-5.25 5.25 -5.25 5.25 -4.9375 2.25 C-2.9375 0.25 -2.9375 0.25 0 0 Z " fill="#73AA22" transform="translate(59.9375,50.75)"></path><path d="M0 0 C0.66 0 1.32 0 2 0 C2.2475 0.969375 2.495 1.93875 2.75 2.9375 C3.1625 3.948125 3.575 4.95875 4 6 C6.03243548 6.96877057 6.03243548 6.96877057 8 7 C7.01 7.495 7.01 7.495 6 8 C5.88679144 13.08303686 5.88679144 13.08303686 7 18 C8.98 18.33 10.96 18.66 13 19 C12.67 17.68 12.34 16.36 12 15 C14.9719385 16.12451727 17.33440687 17.22293791 20 19 C19 20 19 20 17.15234375 20.09765625 C15.1015625 20.06510417 13.05078125 20.03255208 11 20 C11 21.32 11 22.64 11 24 C10.34 24 9.68 24 9 24 C9 23.01 9 22.02 9 21 C8.360625 20.87625 7.72125 20.7525 7.0625 20.625 C6.0415625 20.315625 6.0415625 20.315625 5 20 C4 18 4 18 4.125 14.0625 C4.29279527 10.91371711 4.29279527 10.91371711 2.5625 8.4375 C2.046875 7.963125 1.53125 7.48875 1 7 C0.3125 3.3125 0.3125 3.3125 0 0 Z " fill="#4E7413" transform="translate(8,39)"></path><path d="M0 0 C1.21816406 0.03480469 1.21816406 0.03480469 2.4609375 0.0703125 C3.68683594 0.09738281 3.68683594 0.09738281 4.9375 0.125 C5.87722656 0.15980469 5.87722656 0.15980469 6.8359375 0.1953125 C7.19245233 3.40394599 7.07277299 4.83532256 5.2734375 7.5703125 C2.8359375 9.1953125 2.8359375 9.1953125 -0.9140625 8.9453125 C-2.5228125 8.5740625 -2.5228125 8.5740625 -4.1640625 8.1953125 C-4.2890625 5.3203125 -4.2890625 5.3203125 -4.1640625 2.1953125 C-2.1640625 0.1953125 -2.1640625 0.1953125 0 0 Z " fill="#71A821" transform="translate(42.1640625,41.8046875)"></path><path d="M0 0 C1.670625 0.061875 1.670625 0.061875 3.375 0.125 C4.125 2.3125 4.125 2.3125 4.375 5.125 C2.4375 7.9375 2.4375 7.9375 0.375 10.125 C-1.275 9.795 -2.925 9.465 -4.625 9.125 C-5.25 5.75 -5.25 5.75 -5.625 2.125 C-3.625 0.125 -3.625 0.125 0 0 Z " fill="#71A721" transform="translate(32.625,34.875)"></path><path d="M0 0 C3.96 0 7.92 0 12 0 C10.125 5.875 10.125 5.875 9 7 C6.32941149 7.14115161 3.67567762 7.04247107 1 7 C0.67 4.69 0.34 2.38 0 0 Z " fill="#3D5C0E" transform="translate(53,63)"></path><path d="M0 0 C1.65 0 3.3 0 5 0 C5.125 2.875 5.125 2.875 5 6 C3 8 3 8 1.0546875 8.1953125 C-0.96354167 8.13020833 -2.98177083 8.06510417 -5 8 C-5.33 6.35 -5.66 4.7 -6 3 C-5.195625 2.87625 -4.39125 2.7525 -3.5625 2.625 C-2.716875 2.41875 -1.87125 2.2125 -1 2 C-0.67 1.34 -0.34 0.68 0 0 Z " fill="#70A621" transform="translate(38,55)"></path><path d="M0 0 C0.94875 0.04125 1.8975 0.0825 2.875 0.125 C3 3.5 3 3.5 2.875 7.125 C2.215 7.785 1.555 8.445 0.875 9.125 C-0.445 9.125 -1.765 9.125 -3.125 9.125 C-3.455 8.465 -3.785 7.805 -4.125 7.125 C-5.115 6.795 -6.105 6.465 -7.125 6.125 C-4.34782609 0.17391304 -4.34782609 0.17391304 0 0 Z " fill="#74AC22" transform="translate(55.125,34.875)"></path><path d="M0 0 C0.125 5.75 0.125 5.75 -1 8 C-7.875 7.125 -7.875 7.125 -9 6 C-9.04063832 4.33382885 -9.042721 2.66611905 -9 1 C-6.04335481 -0.4783226 -3.25770263 -0.06032783 0 0 Z " fill="#72A921" transform="translate(33,47)"></path><path d="M0 0 C6.15234375 -0.09765625 6.15234375 -0.09765625 8 0 C9 1 9 1 9.0625 4.0625 C9.041875 5.031875 9.02125 6.00125 9 7 C7.375 7.6875 7.375 7.6875 5 8 C1.75 6.5625 1.75 6.5625 -1 5 C-0.67 3.35 -0.34 1.7 0 0 Z " fill="#6DA21F" transform="translate(54,16)"></path><path d="M0 0 C2.05078125 0.03255208 4.1015625 0.06510417 6.15234375 0.09765625 C6.15234375 2.07765625 6.15234375 4.05765625 6.15234375 6.09765625 C3.4435504 7.45205293 1.14301107 7.16267076 -1.84765625 7.09765625 C-2.22898924 5.10625065 -2.56091207 3.10486548 -2.84765625 1.09765625 C-1.84765625 0.09765625 -1.84765625 0.09765625 0 0 Z " fill="#6BA01F" transform="translate(18.84765625,37.90234375)"></path><path d="M0 0 C1.134375 0.020625 2.26875 0.04125 3.4375 0.0625 C4.5625 4.8125 4.5625 4.8125 3.4375 7.0625 C-2.3125 7.1875 -2.3125 7.1875 -4.5625 6.0625 C-4.605221 4.39638095 -4.60313832 2.72867115 -4.5625 1.0625 C-3.5625 0.0625 -3.5625 0.0625 0 0 Z " fill="#6B9F1F" transform="translate(72.5625,27.9375)"></path><path d="M0 0 C0 3.3 0 6.6 0 10 C-2.97 9.505 -2.97 9.505 -6 9 C-6 6.03 -6 3.06 -6 0 C-4 -1 -4 -1 0 0 Z " fill="#61901B" transform="translate(21,48)"></path><path d="M0 0 C3.125 0.375 3.125 0.375 6 1 C6.125 3.375 6.125 3.375 6 6 C5.34 6.66 4.68 7.32 4 8 C0.875 7.625 0.875 7.625 -2 7 C-2.125 4.625 -2.125 4.625 -2 2 C-1.34 1.34 -0.68 0.68 0 0 Z " fill="#73AA22" transform="translate(34,18)"></path><path d="M0 0 C0.99 0.66 1.98 1.32 3 2 C3.3125 4.5 3.3125 4.5 3 7 C2.34 7.66 1.68 8.32 1 9 C-1.625 8.625 -1.625 8.625 -4 8 C-4 6.02 -4 4.04 -4 2 C-2.68 1.34 -1.36 0.68 0 0 Z " fill="#73AA22" transform="translate(43,28)"></path><path d="M0 0 C1.32 0.66 2.64 1.32 4 2 C3.8125 3.875 3.8125 3.875 3 6 C0.5625 7.3125 0.5625 7.3125 -2 8 C-2.66 7.67 -3.32 7.34 -4 7 C-3.6875 4.625 -3.6875 4.625 -3 2 C-2.01 1.34 -1.02 0.68 0 0 Z " fill="#74AB22" transform="translate(73,46)"></path><path d="M0 0 C2.875 -0.125 2.875 -0.125 6 0 C8.84614024 2.84614024 8.45579076 5.80369142 8.625 9.625 C8.66367187 10.33140625 8.70234375 11.0378125 8.7421875 11.765625 C8.83647724 13.50998524 8.91932891 15.25495691 9 17 C5.83529815 12.25294723 5.89072525 8.68228705 6 3 C4.02 3 2.04 3 0 3 C0 2.01 0 1.02 0 0 Z " fill="#4B380C" transform="translate(45,60)"></path><path d="M0 0 C2.875 -0.125 2.875 -0.125 6 0 C6.66 0.66 7.32 1.32 8 2 C5.03 2 2.06 2 -1 2 C-0.67 1.34 -0.34 0.68 0 0 Z M-2 2 C-1.67 2 -1.34 2 -1 2 C-0.67 3.65 -0.34 5.3 0 7 C1.83700789 7.77242269 1.83700789 7.77242269 4 8 C6.25984425 6.26165827 7.39800928 4.40298607 9 2 C9.20086443 5.71599191 9.1519437 6.77208445 7 10 C2.94554358 10.43132515 1.45029042 10.30019361 -2 8 C-2.1875 4.875 -2.1875 4.875 -2 2 Z " fill="#699D1E" transform="translate(57,51)"></path><path d="M0 0 C0.33 0 0.66 0 1 0 C1 2.97 1 5.94 1 9 C0.01 9 -0.98 9 -2 9 C-5.06991681 9.16442277 -5.06991681 9.16442277 -8 10 C-9.1500831 11.96672915 -9.1500831 11.96672915 -10 14 C-12.125 14.75 -12.125 14.75 -14 15 C-13.360625 14.443125 -12.72125 13.88625 -12.0625 13.3125 C-9.80319013 10.77933439 -9.36850953 9.31658576 -9 6 C-6.03 6.495 -6.03 6.495 -3 7 C-2.01 4.69 -1.02 2.38 0 0 Z " fill="#537D16" transform="translate(61,38)"></path><path d="M0 0 C2 3 2 3 2.875 5.0625 C4.24405488 7.42031674 5.50889277 8.00355711 8 9 C8 9.99 8 10.98 8 12 C5.44312331 11.65447612 3.42498625 11.24912987 1.1875 9.9375 C-0.7634059 6.75444301 -0.1807718 3.67569327 0 0 Z " fill="#6D4D12" transform="translate(52,74)"></path><path d="M0 0 C0.78375 0.04125 1.5675 0.0825 2.375 0.125 C2.375 1.775 2.375 3.425 2.375 5.125 C-0.265 5.455 -2.905 5.785 -5.625 6.125 C-4.86443086 2.32215429 -4.27658992 0.20364714 0 0 Z " fill="#73AB22" transform="translate(31.625,26.875)"></path><path d="M0 0 C2.64 0.66 5.28 1.32 8 2 C4 3 4 3 2 3 C2 5.97 2 8.94 2 12 C-0.31 12 -2.62 12 -5 12 C-4 10 -4 10 -1 9 C-0.67 6.03 -0.34 3.06 0 0 Z " fill="#537B15" transform="translate(64,15)"></path><path d="M0 0 C0.99 0 1.98 0 3 0 C3.125 6.75 3.125 6.75 2 9 C0.68 8.67 -0.64 8.34 -2 8 C-2.125 5.125 -2.125 5.125 -2 2 C-1.34 1.34 -0.68 0.68 0 0 Z " fill="#70A721" transform="translate(19,27)"></path><path d="M0 0 C0.556875 0.226875 1.11375 0.45375 1.6875 0.6875 C1.3575 2.3375 1.0275 3.9875 0.6875 5.6875 C-2.1875 5.875 -2.1875 5.875 -5.3125 5.6875 C-5.9725 4.6975 -6.6325 3.7075 -7.3125 2.6875 C-2.88173077 -0.38942308 -2.88173077 -0.38942308 0 0 Z " fill="#72A921" transform="translate(49.3125,14.3125)"></path><path d="M0 0 C1.62806318 3.25612636 0.5312863 6.24678686 -0.1875 9.7109375 C-1 12 -1 12 -3.625 13.625 C-4.800625 13.810625 -4.800625 13.810625 -6 14 C-6 14.66 -6 15.32 -6 16 C-6.66 16 -7.32 16 -8 16 C-8 15.01 -8 14.02 -8 13 C-7.06220703 12.66162109 -7.06220703 12.66162109 -6.10546875 12.31640625 C-3.28553584 10.55329421 -3.10350703 9.11524501 -2.3125 5.9375 C-1.05984556 1.05984556 -1.05984556 1.05984556 0 0 Z " fill="#5E430D" transform="translate(44,70)"></path><path d="M0 0 C0.99 0.33 1.98 0.66 3 1 C2.34 1 1.68 1 1 1 C1.33 2.65 1.66 4.3 2 6 C4.31 6.66 6.62 7.32 9 8 C9.33 7.01 9.66 6.02 10 5 C10.33 5.99 10.66 6.98 11 8 C10.67 8.33 10.34 8.66 10 9 C8.14227838 8.91015699 6.28752015 8.75388139 4.4375 8.5625 C3.42558594 8.46066406 2.41367187 8.35882813 1.37109375 8.25390625 C0.58863281 8.17011719 -0.19382812 8.08632813 -1 8 C-1.04241723 5.66705225 -1.04092937 3.33297433 -1 1 C-0.67 0.67 -0.34 0.34 0 0 Z " fill="#64951C" transform="translate(23,47)"></path><path d="M0 0 C-0.66 2.31 -1.32 4.62 -2 7 C-3.32 7 -4.64 7 -6 7 C-6.6875 5.1875 -6.6875 5.1875 -7 3 C-4.8243318 -0.20624788 -4.07796486 0 0 0 Z " fill="#71A821" transform="translate(30,17)"></path><path d="M0 0 C-0.33 0.99 -0.66 1.98 -1 3 C-4.63 3 -8.26 3 -12 3 C-7.99926171 -1.00073829 -5.50712514 -1.25161935 0 0 Z " fill="#65951B" transform="translate(41,12)"></path><path d="M0 0 C0.66 0 1.32 0 2 0 C1.7451971 1.96048352 1.47063056 3.91840673 1.1875 5.875 C1.03667969 6.96554688 0.88585938 8.05609375 0.73046875 9.1796875 C0 12 0 12 -3 14 C-3.99 14 -4.98 14 -6 14 C-6 13.34 -6 12.68 -6 12 C-5.36578125 11.77570313 -4.7315625 11.55140625 -4.078125 11.3203125 C-1.77983843 10.16214243 -1.77983843 10.16214243 -1.171875 7.6171875 C-1.03265625 6.71226563 -0.8934375 5.80734375 -0.75 4.875 C-0.60046875 3.96492188 -0.4509375 3.05484375 -0.296875 2.1171875 C-0.19890625 1.41851562 -0.1009375 0.71984375 0 0 Z " fill="#775415" transform="translate(44,72)"></path><path d="M0 0 C0.66 0 1.32 0 2 0 C2.2475 0.969375 2.495 1.93875 2.75 2.9375 C3.1625 3.948125 3.575 4.95875 4 6 C6.03243548 6.96877057 6.03243548 6.96877057 8 7 C7.01 7.495 7.01 7.495 6 8 C5.34786708 10.02463255 5.34786708 10.02463255 5 12 C1.35224614 8.11690718 0.41474367 5.28798182 0 0 Z " fill="#44670F" transform="translate(8,39)"></path><path d="M0 0 C1.65 0 3.3 0 5 0 C5 1.65 5 3.3 5 5 C2.03 4.505 2.03 4.505 -1 4 C-0.67 2.68 -0.34 1.36 0 0 Z " fill="#74AB22" transform="translate(19,39)"></path><path d="M0 0 C1.32 0 2.64 0 4 0 C4.13277344 0.84304687 4.26554687 1.68609375 4.40234375 2.5546875 C4.57894531 3.65039062 4.75554688 4.74609375 4.9375 5.875 C5.11152344 6.96554688 5.28554688 8.05609375 5.46484375 9.1796875 C5.85551159 11.93821546 5.85551159 11.93821546 7 14 C6.01 13.67 5.02 13.34 4 13 C3.67 10.03 3.34 7.06 3 4 C2.01 3.67 1.02 3.34 0 3 C0 2.01 0 1.02 0 0 Z " fill="#805A18" transform="translate(46,69)"></path><path d="M0 0 C0.66 0.33 1.32 0.66 2 1 C1.67 3.64 1.34 6.28 1 9 C-0.32 7.68 -1.64 6.36 -3 5 C-1.125 1.125 -1.125 1.125 0 0 Z " fill="#6EA320" transform="translate(19,47)"></path><path d="M0 0 C1.32 0 2.64 0 4 0 C4 1.32 4 2.64 4 4 C2.02 4.33 0.04 4.66 -2 5 C-2 2 -2 2 0 0 Z " fill="#72A921" transform="translate(62,29)"></path><path d="M0 0 C1.32 0.66 2.64 1.32 4 2 C3.67 3.65 3.34 5.3 3 7 C2.01 7.33 1.02 7.66 0 8 C-1.09658936 4.71023192 -0.79953138 3.28696233 0 0 Z " fill="#72A921" transform="translate(67,19)"></path><path d="M0 0 C1.65 0 3.3 0 5 0 C4.625 1.9375 4.625 1.9375 4 4 C3.01 4.495 3.01 4.495 2 5 C1.01 4.67 0.02 4.34 -1 4 C-0.67 2.68 -0.34 1.36 0 0 Z " fill="#75AD23" transform="translate(71,29)"></path><path d="M0 0 C0.99 0.33 1.98 0.66 3 1 C3.33 1.99 3.66 2.98 4 4 C3.01 4.66 2.02 5.32 1 6 C0.01 5.34 -0.98 4.68 -2 4 C-1.34 2.68 -0.68 1.36 0 0 Z " fill="#76AF23" transform="translate(57,17)"></path><path d="M0 0 C2.89932357 2.39509338 3.50168276 4.31245243 4 8 C2.68 8 1.36 8 0 8 C0 5.36 0 2.72 0 0 Z " fill="#547A13" transform="translate(73,18)"></path><path d="M0 0 C1.134375 0.020625 2.26875 0.04125 3.4375 0.0625 C2.1175 1.7125 0.7975 3.3625 -0.5625 5.0625 C-1.5525 4.7325 -2.5425 4.4025 -3.5625 4.0625 C-3.8925 3.0725 -4.2225 2.0825 -4.5625 1.0625 C-3.5625 0.0625 -3.5625 0.0625 0 0 Z " fill="#558016" transform="translate(25.5625,32.9375)"></path><path d="M0 0 C3 1.8125 3 1.8125 6 4 C6 4.99 6 5.98 6 7 C5.01 7 4.02 7 3 7 C3 6.01 3 5.02 3 4 C2.01 4 1.02 4 0 4 C0 2.68 0 1.36 0 0 Z " fill="#563A0C" transform="translate(54,79)"></path><path d="M0 0 C0.33 0 0.66 0 1 0 C1.125 3.375 1.125 3.375 1 7 C0.34 7.66 -0.32 8.32 -1 9 C-3.125 8.625 -3.125 8.625 -5 8 C-4.0409375 7.13375 -4.0409375 7.13375 -3.0625 6.25 C-1.01776132 4.01937599 -0.41794801 2.92563609 0 0 Z " fill="#6DA11F" transform="translate(57,35)"></path><path d="M0 0 C3.3 0.33 6.6 0.66 10 1 C5.88348273 3.05825864 5.13191749 3.34008135 1 2 C0.67 1.34 0.34 0.68 0 0 Z " fill="#588417" transform="translate(37,52)"></path><path d="M0 0 C0.66 0.33 1.32 0.66 2 1 C1.525625 1.37125 1.05125 1.7425 0.5625 2.125 C-1.52205802 4.62646962 -1.64621491 6.81593418 -2 10 C-2.33 10 -2.66 10 -3 10 C-3 7.03 -3 4.06 -3 1 C-2.01 0.67 -1.02 0.34 0 0 Z " fill="#5A8818" transform="translate(17,25)"></path></svg></g></g><defs><clipPath id="SvgjsClipPath1391"><rect width="1000" height="1000" x="0" y="0" rx="300" ry="300"></rect></clipPath></defs></svg></g><g id="dark-icon"><svg xmlns="http://www.w3.org/2000/svg" version="1.1" xmlns:xlink="http://www.w3.org/1999/xlink" width="1000" height="1000"><g clip-path="url(#SvgjsClipPath1392)"><rect width="1000" height="1000" fill="#000000"></rect><g transform="matrix(8.333333333333334,0,0,8.333333333333334,100,100)"><svg xmlns="http://www.w3.org/2000/svg" version="1.1" width="96" height="96"><path d="M0 0 C0.68900391 0.00064453 1.37800781 0.00128906 2.08789062 0.00195312 C7.17194475 0.04694475 7.17194475 0.04694475 8.3125 1.1875 C9.529375 1.27 10.74625 1.3525 12 1.4375 C18.67068947 2.13572031 25.41164736 3.99436509 31.3125 7.1875 C34.3125 11.96913265 34.3125 11.96913265 34.3125 15.1875 C34.951875 15.744375 35.59125 16.30125 36.25 16.875 C38.93357497 19.88385678 38.94081942 22.24768582 39.3125 26.1875 C39.6425 26.5175 39.9725 26.8475 40.3125 27.1875 C41.34659091 43.13636364 41.34659091 43.13636364 37.3125 49.1875 C35.125 50.125 35.125 50.125 33.3125 50.1875 C33.3125 50.8475 33.3125 51.5075 33.3125 52.1875 C32.72082031 52.35765625 32.12914063 52.5278125 31.51953125 52.703125 C26.26154879 54.30896401 26.26154879 54.30896401 21.75 57.375 C18.19576331 60.01789395 15.66540001 59.48261187 11.3125 59.1875 C11.45357747 60.64630109 11.60052415 62.10453551 11.75 63.5625 C11.83121094 64.37460938 11.91242187 65.18671875 11.99609375 66.0234375 C12.20340114 68.23022805 12.20340114 68.23022805 13.3125 70.1875 C15.32919827 71.32100534 15.32919827 71.32100534 17.3125 72.1875 C17.3125 73.1775 17.3125 74.1675 17.3125 75.1875 C9.3925 75.1875 1.4725 75.1875 -6.6875 75.1875 C-6.6875 74.1975 -6.6875 73.2075 -6.6875 72.1875 C-5.73617187 71.88199219 -5.73617187 71.88199219 -4.765625 71.5703125 C-2.39685435 70.31528129 -2.39685435 70.31528129 -1.859375 67.3671875 C-1.72015625 66.27664062 -1.5809375 65.18609375 -1.4375 64.0625 C-1.28796875 62.96679688 -1.1384375 61.87109375 -0.984375 60.7421875 C-0.88640625 59.89914063 -0.7884375 59.05609375 -0.6875 58.1875 C-3.6171875 58.28515625 -3.6171875 58.28515625 -6.546875 58.3828125 C-9.01707112 58.15742964 -10.50239792 57.33086737 -12.6875 56.1875 C-14.17696979 55.80988794 -15.67841073 55.47691438 -17.1875 55.1875 C-20.3384579 54.5832067 -22.86589175 53.72655905 -25.6875 52.1875 C-25.6875 51.1975 -25.6875 50.2075 -25.6875 49.1875 C-26.326875 49.06375 -26.96625 48.94 -27.625 48.8125 C-28.305625 48.60625 -28.98625 48.4 -29.6875 48.1875 C-30.6875 46.1875 -30.6875 46.1875 -30.5625 42.25 C-30.39470473 39.10121711 -30.39470473 39.10121711 -32.125 36.625 C-32.640625 36.150625 -33.15625 35.67625 -33.6875 35.1875 C-34.67671662 31.37195016 -35.20128989 29.19061359 -33.375 25.625 C-32.818125 24.820625 -32.26125 24.01625 -31.6875 23.1875 C-30.98585358 21.19950182 -30.31377128 19.20051483 -29.6875 17.1875 C-28.6875 15.1875 -28.6875 15.1875 -25.6875 14.1875 C-24.99491771 12.19632592 -24.33002365 10.1953864 -23.6875 8.1875 C-21.52178203 5.49516367 -19.52825548 4.5924447 -16.25 3.625 C-12.94883355 2.63965276 -12.94883355 2.63965276 -9.8828125 1.109375 C-6.6447614 -0.250376 -3.44976019 -0.06236484 0 0 Z " fill="#64961C" transform="translate(42.6875,10.8125)"></path><path d="M0 0 C0.68900391 0.00064453 1.37800781 0.00128906 2.08789062 0.00195312 C7.17194475 0.04694475 7.17194475 0.04694475 8.3125 1.1875 C9.82719448 1.41942865 11.35004562 1.59965238 12.875 1.75 C13.70128906 1.83378906 14.52757812 1.91757813 15.37890625 2.00390625 C16.01699219 2.06449219 16.65507813 2.12507812 17.3125 2.1875 C17.3125 2.5175 17.3125 2.8475 17.3125 3.1875 C14.6725 3.8475 12.0325 4.5075 9.3125 5.1875 C9.3125 4.5275 9.3125 3.8675 9.3125 3.1875 C7.68669034 3.30148665 6.06182843 3.42905659 4.4375 3.5625 C3.53257813 3.63210938 2.62765625 3.70171875 1.6953125 3.7734375 C-0.86691903 3.98318132 -0.86691903 3.98318132 -2.6875 6.1875 C-4.8515625 6.6015625 -4.8515625 6.6015625 -7.3125 6.8125 C-8.12976563 6.88726563 -8.94703125 6.96203125 -9.7890625 7.0390625 C-10.41554688 7.08804687 -11.04203125 7.13703125 -11.6875 7.1875 C-11.6875 6.5275 -11.6875 5.8675 -11.6875 5.1875 C-16.01979715 6.0479139 -16.01979715 6.0479139 -19.6875 8.1875 C-19.72830783 10.18708364 -19.73004356 12.18795254 -19.6875 14.1875 C-20.47125 14.47625 -21.255 14.765 -22.0625 15.0625 C-24.78421632 16.03662254 -24.78421632 16.03662254 -26.6875 18.1875 C-27.08797444 20.51025177 -27.4272104 22.84489357 -27.6875 25.1875 C-27.0275 25.5175 -26.3675 25.8475 -25.6875 26.1875 C-27.6675 27.1775 -27.6675 27.1775 -29.6875 28.1875 C-28.53576645 30.65550047 -27.63966435 32.23533565 -25.6875 34.1875 C-23.47677023 34.43003813 -23.47677023 34.43003813 -21.0625 34.3125 C-20.24523438 34.29445312 -19.42796875 34.27640625 -18.5859375 34.2578125 C-17.95945312 34.23460937 -17.33296875 34.21140625 -16.6875 34.1875 C-16.0275 32.8675 -15.3675 31.5475 -14.6875 30.1875 C-14.6875 31.8375 -14.6875 33.4875 -14.6875 35.1875 C-16.3375 35.8475 -17.9875 36.5075 -19.6875 37.1875 C-20.0175 39.4975 -20.3475 41.8075 -20.6875 44.1875 C-19.2953125 44.4659375 -19.2953125 44.4659375 -17.875 44.75 C-14.6875 46.1875 -14.6875 46.1875 -12.875 49.75 C-12.483125 50.884375 -12.09125 52.01875 -11.6875 53.1875 C-10.63149622 54.46620382 -10.63149622 54.46620382 -8.21875 54.3203125 C-7.2184375 54.31773438 -6.218125 54.31515625 -5.1875 54.3125 C-3.68703125 54.31636719 -3.68703125 54.31636719 -2.15625 54.3203125 C0.25649622 54.46620382 0.25649622 54.46620382 1.3125 53.1875 C1.68302339 48.01014323 1.68302339 48.01014323 0.3125 43.1875 C1.6325 43.1875 2.9525 43.1875 4.3125 43.1875 C4.3125 42.5275 4.3125 41.8675 4.3125 41.1875 C4.951875 40.754375 5.59125 40.32125 6.25 39.875 C8.81177596 37.77900148 8.96471564 36.40450528 9.3125 33.1875 C12.2825 33.6825 12.2825 33.6825 15.3125 34.1875 C16.3025 31.8775 17.2925 29.5675 18.3125 27.1875 C18.6425 27.1875 18.9725 27.1875 19.3125 27.1875 C19.3125 30.1575 19.3125 33.1275 19.3125 36.1875 C17.3325 36.6825 17.3325 36.6825 15.3125 37.1875 C15.3125 37.8475 15.3125 38.5075 15.3125 39.1875 C14.6525 39.6 13.9925 40.0125 13.3125 40.4375 C10.97134038 42.08472238 10.97134038 42.08472238 11 45.25 C11.13174034 48.11771928 11.13174034 48.11771928 12.3125 50.1875 C19.60746251 50.63144131 19.60746251 50.63144131 26.3125 48.1875 C27.19943303 46.14644361 27.19943303 46.14644361 27.3125 44.1875 C28.26125 44.22875 29.21 44.27 30.1875 44.3125 C33.41494856 44.53723818 33.41494856 44.53723818 35.3125 42.1875 C35.71297444 39.86474823 36.0522104 37.53010643 36.3125 35.1875 C35.6525 35.1875 34.9925 35.1875 34.3125 35.1875 C34.3125 33.5375 34.3125 31.8875 34.3125 30.1875 C32.8275 30.6825 32.8275 30.6825 31.3125 31.1875 C30.8175 28.2175 30.8175 28.2175 30.3125 25.1875 C31.9625 24.5275 33.6125 23.8675 35.3125 23.1875 C35.3125 20.8775 35.3125 18.5675 35.3125 16.1875 C38.09465593 18.24387612 38.32938361 19.28542496 38.9375 22.8125 C39.06125 23.92625 39.185 25.04 39.3125 26.1875 C39.6425 26.5175 39.9725 26.8475 40.3125 27.1875 C41.34659091 43.13636364 41.34659091 43.13636364 37.3125 49.1875 C35.125 50.125 35.125 50.125 33.3125 50.1875 C33.3125 50.8475 33.3125 51.5075 33.3125 52.1875 C32.72082031 52.35765625 32.12914063 52.5278125 31.51953125 52.703125 C26.26154879 54.30896401 26.26154879 54.30896401 21.75 57.375 C18.19576331 60.01789395 15.66540001 59.48261187 11.3125 59.1875 C11.45357747 60.64630109 11.60052415 62.10453551 11.75 63.5625 C11.83121094 64.37460938 11.91242187 65.18671875 11.99609375 66.0234375 C12.20340114 68.23022805 12.20340114 68.23022805 13.3125 70.1875 C15.32919827 71.32100534 15.32919827 71.32100534 17.3125 72.1875 C17.3125 73.1775 17.3125 74.1675 17.3125 75.1875 C9.3925 75.1875 1.4725 75.1875 -6.6875 75.1875 C-6.6875 74.1975 -6.6875 73.2075 -6.6875 72.1875 C-5.73617187 71.88199219 -5.73617187 71.88199219 -4.765625 71.5703125 C-2.39685435 70.31528129 -2.39685435 70.31528129 -1.859375 67.3671875 C-1.72015625 66.27664062 -1.5809375 65.18609375 -1.4375 64.0625 C-1.28796875 62.96679688 -1.1384375 61.87109375 -0.984375 60.7421875 C-0.88640625 59.89914063 -0.7884375 59.05609375 -0.6875 58.1875 C-3.6171875 58.28515625 -3.6171875 58.28515625 -6.546875 58.3828125 C-9.01707112 58.15742964 -10.50239792 57.33086737 -12.6875 56.1875 C-14.17696979 55.80988794 -15.67841073 55.47691438 -17.1875 55.1875 C-20.3384579 54.5832067 -22.86589175 53.72655905 -25.6875 52.1875 C-25.6875 51.1975 -25.6875 50.2075 -25.6875 49.1875 C-26.326875 49.06375 -26.96625 48.94 -27.625 48.8125 C-28.305625 48.60625 -28.98625 48.4 -29.6875 48.1875 C-30.6875 46.1875 -30.6875 46.1875 -30.5625 42.25 C-30.39470473 39.10121711 -30.39470473 39.10121711 -32.125 36.625 C-32.640625 36.150625 -33.15625 35.67625 -33.6875 35.1875 C-34.67671662 31.37195016 -35.20128989 29.19061359 -33.375 25.625 C-32.818125 24.820625 -32.26125 24.01625 -31.6875 23.1875 C-30.98585358 21.19950182 -30.31377128 19.20051483 -29.6875 17.1875 C-28.6875 15.1875 -28.6875 15.1875 -25.6875 14.1875 C-24.99491771 12.19632592 -24.33002365 10.1953864 -23.6875 8.1875 C-21.52178203 5.49516367 -19.52825548 4.5924447 -16.25 3.625 C-12.94883355 2.63965276 -12.94883355 2.63965276 -9.8828125 1.109375 C-6.6447614 -0.250376 -3.44976019 -0.06236484 0 0 Z " fill="#4E7513" transform="translate(42.6875,10.8125)"></path><path d="M0 0 C2.64 0.66 5.28 1.32 8 2 C4 3 4 3 2 3 C2 5.97 2 8.94 2 12 C0.3603125 12.37125 0.3603125 12.37125 -1.3125 12.75 C-5.01545791 13.59511476 -5.01545791 13.59511476 -6.375 16 C-8.41934552 18.51611757 -9.42975079 18.38690871 -12.5625 18.875 C-14.93685875 19.22555555 -14.93685875 19.22555555 -17 20 C-18.69165301 22.98283157 -18.69165301 22.98283157 -19 26 C-20.65 26 -22.3 26 -24 26 C-24.66 28.97 -25.32 31.94 -26 35 C-21.34306977 35.41345005 -21.34306977 35.41345005 -17.125 33.8125 C-15.73770965 31.5774211 -15.35012787 29.59094622 -15 27 C-14.01 27 -13.02 27 -12 27 C-11.6330421 33.48292295 -11.6330421 33.48292295 -13.375 35.9375 C-15 37 -15 37 -17 37 C-17 37.66 -17 38.32 -17 39 C-18.485 39.495 -18.485 39.495 -20 40 C-19.505 40.495 -19.505 40.495 -19 41 C-18.72685185 46.73611111 -18.72685185 46.73611111 -19 49 C-21.57603912 51.57603912 -22.79249282 51.3558611 -26.375 51.4375 C-31.58342701 51.34875878 -31.58342701 51.34875878 -34.6875 48.75 C-36 46 -36 46 -36 42 C-36.61875 41.855625 -37.2375 41.71125 -37.875 41.5625 C-40 41 -40 41 -42 40 C-42 37.69 -42 35.38 -42 33 C-40.35 32.34 -38.7 31.68 -37 31 C-37.33 31 -37.66 31 -38 31 C-41 31 -44 31 -47 31 C-47 30.67 -47 30.34 -47 30 C-43.04 29.505 -43.04 29.505 -39 29 C-39 27.02 -39 25.04 -39 23 C-39.99 22.67 -40.98 22.34 -42 22 C-42.33 21.01 -42.66 20.02 -43 19 C-38.68803391 18.05675742 -34.37934119 17.51958285 -30 17 C-29.67 15.02 -29.34 13.04 -29 11 C-27.02 10.67 -25.04 10.34 -23 10 C-22.67 7.69 -22.34 5.38 -22 3 C-19.36 3.66 -16.72 4.32 -14 5 C-13.67 4.01 -13.34 3.02 -13 2 C-12.34 3.32 -11.68 4.64 -11 6 C-13.64 6.66 -16.28 7.32 -19 8 C-19.33 9.32 -19.66 10.64 -20 12 C-23.0625 13.25 -23.0625 13.25 -26 14 C-26.33 15.98 -26.66 17.96 -27 20 C-23.70054409 20.9363921 -23.70054409 20.9363921 -20 21 C-17.29348303 18.43593129 -16.17604084 16.52812251 -15 13 C-14.01 13.99 -13.02 14.98 -12 16 C-7.93975679 13.96197865 -7.93975679 13.96197865 -6 10 C-4.35 9.67 -2.7 9.34 -1 9 C-0.67 6.03 -0.34 3.06 0 0 Z " fill="#5C8A19" transform="translate(64,15)"></path><path d="M0 0 C0.68900391 0.00064453 1.37800781 0.00128906 2.08789062 0.00195312 C7.17194475 0.04694475 7.17194475 0.04694475 8.3125 1.1875 C9.82719448 1.41942865 11.35004562 1.59965238 12.875 1.75 C13.70128906 1.83378906 14.52757812 1.91757813 15.37890625 2.00390625 C16.01699219 2.06449219 16.65507813 2.12507812 17.3125 2.1875 C17.3125 2.5175 17.3125 2.8475 17.3125 3.1875 C14.6725 3.8475 12.0325 4.5075 9.3125 5.1875 C9.3125 4.5275 9.3125 3.8675 9.3125 3.1875 C7.68669034 3.30148665 6.06182843 3.42905659 4.4375 3.5625 C3.53257813 3.63210938 2.62765625 3.70171875 1.6953125 3.7734375 C-0.86691903 3.98318132 -0.86691903 3.98318132 -2.6875 6.1875 C-4.8515625 6.6015625 -4.8515625 6.6015625 -7.3125 6.8125 C-8.12976563 6.88726563 -8.94703125 6.96203125 -9.7890625 7.0390625 C-10.41554688 7.08804687 -11.04203125 7.13703125 -11.6875 7.1875 C-11.6875 6.5275 -11.6875 5.8675 -11.6875 5.1875 C-16.01979715 6.0479139 -16.01979715 6.0479139 -19.6875 8.1875 C-19.72830783 10.18708364 -19.73004356 12.18795254 -19.6875 14.1875 C-20.47125 14.47625 -21.255 14.765 -22.0625 15.0625 C-24.78421632 16.03662254 -24.78421632 16.03662254 -26.6875 18.1875 C-27.08797444 20.51025177 -27.4272104 22.84489357 -27.6875 25.1875 C-27.0275 25.5175 -26.3675 25.8475 -25.6875 26.1875 C-27.6675 27.1775 -27.6675 27.1775 -29.6875 28.1875 C-28.53576645 30.65550047 -27.63966435 32.23533565 -25.6875 34.1875 C-23.47677023 34.43003813 -23.47677023 34.43003813 -21.0625 34.3125 C-20.24523438 34.29445312 -19.42796875 34.27640625 -18.5859375 34.2578125 C-17.95945312 34.23460937 -17.33296875 34.21140625 -16.6875 34.1875 C-16.0275 32.8675 -15.3675 31.5475 -14.6875 30.1875 C-14.6875 31.8375 -14.6875 33.4875 -14.6875 35.1875 C-16.3375 35.8475 -17.9875 36.5075 -19.6875 37.1875 C-20.0175 39.4975 -20.3475 41.8075 -20.6875 44.1875 C-19.2953125 44.4659375 -19.2953125 44.4659375 -17.875 44.75 C-14.6875 46.1875 -14.6875 46.1875 -12.875 49.75 C-12.483125 50.884375 -12.09125 52.01875 -11.6875 53.1875 C-9.94793342 54.92706658 -7.4938378 54.55940386 -5.125 54.75 C-4.11308594 54.83378906 -3.10117187 54.91757813 -2.05859375 55.00390625 C-1.27613281 55.06449219 -0.49367187 55.12507813 0.3125 55.1875 C-0.0175 56.1775 -0.3475 57.1675 -0.6875 58.1875 C-1.925 58.22875 -3.1625 58.27 -4.4375 58.3125 C-5.13359375 58.33570313 -5.8296875 58.35890625 -6.546875 58.3828125 C-9.01707112 58.15742964 -10.50239792 57.33086737 -12.6875 56.1875 C-14.17696979 55.80988794 -15.67841073 55.47691438 -17.1875 55.1875 C-20.3384579 54.5832067 -22.86589175 53.72655905 -25.6875 52.1875 C-25.6875 51.1975 -25.6875 50.2075 -25.6875 49.1875 C-26.326875 49.06375 -26.96625 48.94 -27.625 48.8125 C-28.305625 48.60625 -28.98625 48.4 -29.6875 48.1875 C-30.6875 46.1875 -30.6875 46.1875 -30.5625 42.25 C-30.39470473 39.10121711 -30.39470473 39.10121711 -32.125 36.625 C-32.640625 36.150625 -33.15625 35.67625 -33.6875 35.1875 C-34.67671662 31.37195016 -35.20128989 29.19061359 -33.375 25.625 C-32.818125 24.820625 -32.26125 24.01625 -31.6875 23.1875 C-30.98585358 21.19950182 -30.31377128 19.20051483 -29.6875 17.1875 C-28.6875 15.1875 -28.6875 15.1875 -25.6875 14.1875 C-24.99491771 12.19632592 -24.33002365 10.1953864 -23.6875 8.1875 C-21.52178203 5.49516367 -19.52825548 4.5924447 -16.25 3.625 C-12.94883355 2.63965276 -12.94883355 2.63965276 -9.8828125 1.109375 C-6.6447614 -0.250376 -3.44976019 -0.06236484 0 0 Z " fill="#558016" transform="translate(42.6875,10.8125)"></path><path d="M0 0 C2.875 -0.125 2.875 -0.125 6 0 C8.9746758 2.9746758 8.68381413 6.48922274 9.0625 10.5 C9.39473537 15.91466235 9.39473537 15.91466235 11 21 C13.01669827 22.13350534 13.01669827 22.13350534 15 23 C15 23.99 15 24.98 15 26 C7.08 26 -0.84 26 -9 26 C-9 25.01 -9 24.02 -9 23 C-8.37351563 22.83113281 -7.74703125 22.66226563 -7.1015625 22.48828125 C-4.61796189 21.0617543 -4.61796189 21.0617543 -4.0234375 17.48046875 C-3.78961014 16.05226184 -3.5741267 14.62095693 -3.375 13.1875 C-2.6738305 8.57564107 -1.96534727 4.27505025 0 0 Z " fill="#543C0F" transform="translate(45,60)"></path><path d="M0 0 C4.89727149 4.00685849 5.28614171 10.05118095 6 16 C0.17521449 19.03901852 -4.48208608 19.3540919 -11 19 C-11.433125 20.670625 -11.433125 20.670625 -11.875 22.375 C-13 26 -13 26 -15 28 C-17.625 27.625 -17.625 27.625 -20 27 C-19.360625 26.67 -18.72125 26.34 -18.0625 26 C-14.9447236 22.97670168 -15.27956936 20.26343276 -15 16 C-12.36 15.67 -9.72 15.34 -7 15 C-6.7834375 13.824375 -6.7834375 13.824375 -6.5625 12.625 C-6 10 -6 10 -5 8 C-1.9375 7.375 -1.9375 7.375 1 7 C0.67 4.69 0.34 2.38 0 0 Z " fill="#5F8E1A" transform="translate(73,18)"></path><path d="M0 0 C0.66 0 1.32 0 2 0 C2.2475 0.969375 2.495 1.93875 2.75 2.9375 C3.1625 3.948125 3.575 4.95875 4 6 C6.03243548 6.96877057 6.03243548 6.96877057 8 7 C7.01 7.495 7.01 7.495 6 8 C5.88679144 13.08303686 5.88679144 13.08303686 7 18 C8.98 18.33 10.96 18.66 13 19 C12.67 17.68 12.34 16.36 12 15 C12.763125 15.309375 13.52625 15.61875 14.3125 15.9375 C16.18789677 16.67893593 18.08684652 17.36228217 20 18 C21.06902939 20.30252483 22.07175817 22.6372026 23 25 C24.73956658 26.73956658 27.1936622 26.37190386 29.5625 26.5625 C30.57441406 26.64628906 31.58632813 26.73007813 32.62890625 26.81640625 C33.41136719 26.87699219 34.19382813 26.93757813 35 27 C34.505 28.485 34.505 28.485 34 30 C32.14375 30.061875 32.14375 30.061875 30.25 30.125 C29.55390625 30.14820312 28.8578125 30.17140625 28.140625 30.1953125 C25.67042888 29.96992964 24.18510208 29.14336737 22 28 C20.51053021 27.62238794 19.00908927 27.28941438 17.5 27 C14.3490421 26.3957067 11.82160825 25.53905905 9 24 C9 23.01 9 22.02 9 21 C8.360625 20.87625 7.72125 20.7525 7.0625 20.625 C6.0415625 20.315625 6.0415625 20.315625 5 20 C4 18 4 18 4.125 14.0625 C4.29279527 10.91371711 4.29279527 10.91371711 2.5625 8.4375 C2.046875 7.963125 1.53125 7.48875 1 7 C0.3125 3.3125 0.3125 3.3125 0 0 Z " fill="#446610" transform="translate(8,39)"></path><path d="M0 0 C0.33 0.99 0.66 1.98 1 3 C-0.28965176 4.37562854 -1.62689293 5.70766393 -3 7 C-3.66 7 -4.32 7 -5 7 C-5 7.66 -5 8.32 -5 9 C-5.59167969 9.17015625 -6.18335937 9.3403125 -6.79296875 9.515625 C-12.05095121 11.12146401 -12.05095121 11.12146401 -16.5625 14.1875 C-20.11673669 16.83039395 -22.64709999 16.29511187 -27 16 C-27.33 13.69 -27.66 11.38 -28 9 C-26.57107422 8.97873047 -26.57107422 8.97873047 -25.11328125 8.95703125 C-17.48461226 8.96144542 -17.48461226 8.96144542 -11.0625 5.5 C-10.381875 4.675 -9.70125 3.85 -9 3 C-5.3125 2.3125 -5.3125 2.3125 -2 2 C-1.34 1.34 -0.68 0.68 0 0 Z " fill="#45670F" transform="translate(81,54)"></path><path d="M0 0 C1.32 0 2.64 0 4 0 C4.13277344 0.83144531 4.26554687 1.66289063 4.40234375 2.51953125 C4.57894531 3.60621094 4.75554688 4.69289063 4.9375 5.8125 C5.11152344 6.89144531 5.28554688 7.97039062 5.46484375 9.08203125 C5.93871921 12.04933356 5.93871921 12.04933356 7 15 C7.99 15.33 8.98 15.66 10 16 C10 16.33 10 16.66 10 17 C5.05 17 0.1 17 -5 17 C-4.67 16.34 -4.34 15.68 -4 15 C-3.34 15 -2.68 15 -2 15 C-1.34 10.05 -0.68 5.1 0 0 Z " fill="#92671C" transform="translate(46,69)"></path><path d="M0 0 C8.3984375 -0.1953125 8.3984375 -0.1953125 11 0 C13 2 13 2 13.125 4.625 C13.08375 5.40875 13.0425 6.1925 13 7 C11.046875 7.71614583 9.09375 8.43229167 7.140625 9.1484375 C5.04365072 9.9826353 3.01855139 10.99072431 1 12 C0.67 8.04 0.34 4.08 0 0 Z " fill="#6FA520" transform="translate(61,36)"></path><path d="M0 0 C2.64 0.66 5.28 1.32 8 2 C4 3 4 3 2 3 C2 5.97 2 8.94 2 12 C0.3603125 12.37125 0.3603125 12.37125 -1.3125 12.75 C-5.01545791 13.59511476 -5.01545791 13.59511476 -6.375 16 C-8.41934552 18.51611757 -9.42975079 18.38690871 -12.5625 18.875 C-14.93685875 19.22555555 -14.93685875 19.22555555 -17 20 C-18.69165301 22.98283157 -18.69165301 22.98283157 -19 26 C-20.65 26 -22.3 26 -24 26 C-24 25.01 -24 24.02 -24 23 C-23.4225 22.773125 -22.845 22.54625 -22.25 22.3125 C-18.43916226 20.08951132 -16.38070336 17.14211008 -15 13 C-14.01 13.99 -13.02 14.98 -12 16 C-7.93975679 13.96197865 -7.93975679 13.96197865 -6 10 C-4.35 9.67 -2.7 9.34 -1 9 C-0.67 6.03 -0.34 3.06 0 0 Z " fill="#5C8919" transform="translate(64,15)"></path><path d="M0 0 C1.90234375 0.3046875 1.90234375 0.3046875 4 1 C5.17655783 3.35311567 6.11735327 5.54119838 7 8 C8.63639951 12.89009204 8.63639951 12.89009204 12.1875 16.4375 C12.785625 16.623125 13.38375 16.80875 14 17 C14 17.99 14 18.98 14 20 C9.65926012 19.51769557 7.72799592 18.4099949 5 15 C4.390625 11.984375 4.390625 11.984375 4.25 8.75 C4.19328125 7.67234375 4.1365625 6.5946875 4.078125 5.484375 C4.05234375 4.66453125 4.0265625 3.8446875 4 3 C2.68 3 1.36 3 0 3 C-0.06058594 3.83144531 -0.12117188 4.66289063 -0.18359375 5.51953125 C-0.26738281 6.60621094 -0.35117187 7.69289063 -0.4375 8.8125 C-0.51871094 9.89144531 -0.59992187 10.97039062 -0.68359375 12.08203125 C-1 15 -1 15 -2 18 C-5 20 -5 20 -8 20 C-8 19.34 -8 18.68 -8 18 C-7.07960937 17.75636719 -7.07960937 17.75636719 -6.140625 17.5078125 C-2.79291899 15.14975681 -2.55173044 11.67993383 -1.75 7.875 C-1.57726563 7.12089844 -1.40453125 6.36679688 -1.2265625 5.58984375 C-0.80277816 3.72990139 -0.39940976 1.86532855 0 0 Z " fill="#6C4D14" transform="translate(46,66)"></path><path d="M0 0 C3.0625 0.25 3.0625 0.25 6.0625 2.25 C6.53980962 5.97301503 6.2012261 7.04191085 4.0625 10.25 C0.00804358 10.68132515 -1.48720958 10.55019361 -4.9375 8.25 C-5.25 5.25 -5.25 5.25 -4.9375 2.25 C-2.9375 0.25 -2.9375 0.25 0 0 Z " fill="#73AA22" transform="translate(59.9375,50.75)"></path><path d="M0 0 C0.66 0 1.32 0 2 0 C2.2475 0.969375 2.495 1.93875 2.75 2.9375 C3.1625 3.948125 3.575 4.95875 4 6 C6.03243548 6.96877057 6.03243548 6.96877057 8 7 C7.01 7.495 7.01 7.495 6 8 C5.88679144 13.08303686 5.88679144 13.08303686 7 18 C8.98 18.33 10.96 18.66 13 19 C12.67 17.68 12.34 16.36 12 15 C14.9719385 16.12451727 17.33440687 17.22293791 20 19 C19 20 19 20 17.15234375 20.09765625 C15.1015625 20.06510417 13.05078125 20.03255208 11 20 C11 21.32 11 22.64 11 24 C10.34 24 9.68 24 9 24 C9 23.01 9 22.02 9 21 C8.360625 20.87625 7.72125 20.7525 7.0625 20.625 C6.0415625 20.315625 6.0415625 20.315625 5 20 C4 18 4 18 4.125 14.0625 C4.29279527 10.91371711 4.29279527 10.91371711 2.5625 8.4375 C2.046875 7.963125 1.53125 7.48875 1 7 C0.3125 3.3125 0.3125 3.3125 0 0 Z " fill="#4E7413" transform="translate(8,39)"></path><path d="M0 0 C1.21816406 0.03480469 1.21816406 0.03480469 2.4609375 0.0703125 C3.68683594 0.09738281 3.68683594 0.09738281 4.9375 0.125 C5.87722656 0.15980469 5.87722656 0.15980469 6.8359375 0.1953125 C7.19245233 3.40394599 7.07277299 4.83532256 5.2734375 7.5703125 C2.8359375 9.1953125 2.8359375 9.1953125 -0.9140625 8.9453125 C-2.5228125 8.5740625 -2.5228125 8.5740625 -4.1640625 8.1953125 C-4.2890625 5.3203125 -4.2890625 5.3203125 -4.1640625 2.1953125 C-2.1640625 0.1953125 -2.1640625 0.1953125 0 0 Z " fill="#71A821" transform="translate(42.1640625,41.8046875)"></path><path d="M0 0 C1.670625 0.061875 1.670625 0.061875 3.375 0.125 C4.125 2.3125 4.125 2.3125 4.375 5.125 C2.4375 7.9375 2.4375 7.9375 0.375 10.125 C-1.275 9.795 -2.925 9.465 -4.625 9.125 C-5.25 5.75 -5.25 5.75 -5.625 2.125 C-3.625 0.125 -3.625 0.125 0 0 Z " fill="#71A721" transform="translate(32.625,34.875)"></path><path d="M0 0 C3.96 0 7.92 0 12 0 C10.125 5.875 10.125 5.875 9 7 C6.32941149 7.14115161 3.67567762 7.04247107 1 7 C0.67 4.69 0.34 2.38 0 0 Z " fill="#3D5C0E" transform="translate(53,63)"></path><path d="M0 0 C1.65 0 3.3 0 5 0 C5.125 2.875 5.125 2.875 5 6 C3 8 3 8 1.0546875 8.1953125 C-0.96354167 8.13020833 -2.98177083 8.06510417 -5 8 C-5.33 6.35 -5.66 4.7 -6 3 C-5.195625 2.87625 -4.39125 2.7525 -3.5625 2.625 C-2.716875 2.41875 -1.87125 2.2125 -1 2 C-0.67 1.34 -0.34 0.68 0 0 Z " fill="#70A621" transform="translate(38,55)"></path><path d="M0 0 C0.94875 0.04125 1.8975 0.0825 2.875 0.125 C3 3.5 3 3.5 2.875 7.125 C2.215 7.785 1.555 8.445 0.875 9.125 C-0.445 9.125 -1.765 9.125 -3.125 9.125 C-3.455 8.465 -3.785 7.805 -4.125 7.125 C-5.115 6.795 -6.105 6.465 -7.125 6.125 C-4.34782609 0.17391304 -4.34782609 0.17391304 0 0 Z " fill="#74AC22" transform="translate(55.125,34.875)"></path><path d="M0 0 C0.125 5.75 0.125 5.75 -1 8 C-7.875 7.125 -7.875 7.125 -9 6 C-9.04063832 4.33382885 -9.042721 2.66611905 -9 1 C-6.04335481 -0.4783226 -3.25770263 -0.06032783 0 0 Z " fill="#72A921" transform="translate(33,47)"></path><path d="M0 0 C6.15234375 -0.09765625 6.15234375 -0.09765625 8 0 C9 1 9 1 9.0625 4.0625 C9.041875 5.031875 9.02125 6.00125 9 7 C7.375 7.6875 7.375 7.6875 5 8 C1.75 6.5625 1.75 6.5625 -1 5 C-0.67 3.35 -0.34 1.7 0 0 Z " fill="#6DA21F" transform="translate(54,16)"></path><path d="M0 0 C2.05078125 0.03255208 4.1015625 0.06510417 6.15234375 0.09765625 C6.15234375 2.07765625 6.15234375 4.05765625 6.15234375 6.09765625 C3.4435504 7.45205293 1.14301107 7.16267076 -1.84765625 7.09765625 C-2.22898924 5.10625065 -2.56091207 3.10486548 -2.84765625 1.09765625 C-1.84765625 0.09765625 -1.84765625 0.09765625 0 0 Z " fill="#6BA01F" transform="translate(18.84765625,37.90234375)"></path><path d="M0 0 C1.134375 0.020625 2.26875 0.04125 3.4375 0.0625 C4.5625 4.8125 4.5625 4.8125 3.4375 7.0625 C-2.3125 7.1875 -2.3125 7.1875 -4.5625 6.0625 C-4.605221 4.39638095 -4.60313832 2.72867115 -4.5625 1.0625 C-3.5625 0.0625 -3.5625 0.0625 0 0 Z " fill="#6B9F1F" transform="translate(72.5625,27.9375)"></path><path d="M0 0 C0 3.3 0 6.6 0 10 C-2.97 9.505 -2.97 9.505 -6 9 C-6 6.03 -6 3.06 -6 0 C-4 -1 -4 -1 0 0 Z " fill="#61901B" transform="translate(21,48)"></path><path d="M0 0 C3.125 0.375 3.125 0.375 6 1 C6.125 3.375 6.125 3.375 6 6 C5.34 6.66 4.68 7.32 4 8 C0.875 7.625 0.875 7.625 -2 7 C-2.125 4.625 -2.125 4.625 -2 2 C-1.34 1.34 -0.68 0.68 0 0 Z " fill="#73AA22" transform="translate(34,18)"></path><path d="M0 0 C0.99 0.66 1.98 1.32 3 2 C3.3125 4.5 3.3125 4.5 3 7 C2.34 7.66 1.68 8.32 1 9 C-1.625 8.625 -1.625 8.625 -4 8 C-4 6.02 -4 4.04 -4 2 C-2.68 1.34 -1.36 0.68 0 0 Z " fill="#73AA22" transform="translate(43,28)"></path><path d="M0 0 C1.32 0.66 2.64 1.32 4 2 C3.8125 3.875 3.8125 3.875 3 6 C0.5625 7.3125 0.5625 7.3125 -2 8 C-2.66 7.67 -3.32 7.34 -4 7 C-3.6875 4.625 -3.6875 4.625 -3 2 C-2.01 1.34 -1.02 0.68 0 0 Z " fill="#74AB22" transform="translate(73,46)"></path><path d="M0 0 C2.875 -0.125 2.875 -0.125 6 0 C8.84614024 2.84614024 8.45579076 5.80369142 8.625 9.625 C8.66367187 10.33140625 8.70234375 11.0378125 8.7421875 11.765625 C8.83647724 13.50998524 8.91932891 15.25495691 9 17 C5.83529815 12.25294723 5.89072525 8.68228705 6 3 C4.02 3 2.04 3 0 3 C0 2.01 0 1.02 0 0 Z " fill="#4B380C" transform="translate(45,60)"></path><path d="M0 0 C2.875 -0.125 2.875 -0.125 6 0 C6.66 0.66 7.32 1.32 8 2 C5.03 2 2.06 2 -1 2 C-0.67 1.34 -0.34 0.68 0 0 Z M-2 2 C-1.67 2 -1.34 2 -1 2 C-0.67 3.65 -0.34 5.3 0 7 C1.83700789 7.77242269 1.83700789 7.77242269 4 8 C6.25984425 6.26165827 7.39800928 4.40298607 9 2 C9.20086443 5.71599191 9.1519437 6.77208445 7 10 C2.94554358 10.43132515 1.45029042 10.30019361 -2 8 C-2.1875 4.875 -2.1875 4.875 -2 2 Z " fill="#699D1E" transform="translate(57,51)"></path><path d="M0 0 C0.33 0 0.66 0 1 0 C1 2.97 1 5.94 1 9 C0.01 9 -0.98 9 -2 9 C-5.06991681 9.16442277 -5.06991681 9.16442277 -8 10 C-9.1500831 11.96672915 -9.1500831 11.96672915 -10 14 C-12.125 14.75 -12.125 14.75 -14 15 C-13.360625 14.443125 -12.72125 13.88625 -12.0625 13.3125 C-9.80319013 10.77933439 -9.36850953 9.31658576 -9 6 C-6.03 6.495 -6.03 6.495 -3 7 C-2.01 4.69 -1.02 2.38 0 0 Z " fill="#537D16" transform="translate(61,38)"></path><path d="M0 0 C2 3 2 3 2.875 5.0625 C4.24405488 7.42031674 5.50889277 8.00355711 8 9 C8 9.99 8 10.98 8 12 C5.44312331 11.65447612 3.42498625 11.24912987 1.1875 9.9375 C-0.7634059 6.75444301 -0.1807718 3.67569327 0 0 Z " fill="#6D4D12" transform="translate(52,74)"></path><path d="M0 0 C0.78375 0.04125 1.5675 0.0825 2.375 0.125 C2.375 1.775 2.375 3.425 2.375 5.125 C-0.265 5.455 -2.905 5.785 -5.625 6.125 C-4.86443086 2.32215429 -4.27658992 0.20364714 0 0 Z " fill="#73AB22" transform="translate(31.625,26.875)"></path><path d="M0 0 C2.64 0.66 5.28 1.32 8 2 C4 3 4 3 2 3 C2 5.97 2 8.94 2 12 C-0.31 12 -2.62 12 -5 12 C-4 10 -4 10 -1 9 C-0.67 6.03 -0.34 3.06 0 0 Z " fill="#537B15" transform="translate(64,15)"></path><path d="M0 0 C0.99 0 1.98 0 3 0 C3.125 6.75 3.125 6.75 2 9 C0.68 8.67 -0.64 8.34 -2 8 C-2.125 5.125 -2.125 5.125 -2 2 C-1.34 1.34 -0.68 0.68 0 0 Z " fill="#70A721" transform="translate(19,27)"></path><path d="M0 0 C0.556875 0.226875 1.11375 0.45375 1.6875 0.6875 C1.3575 2.3375 1.0275 3.9875 0.6875 5.6875 C-2.1875 5.875 -2.1875 5.875 -5.3125 5.6875 C-5.9725 4.6975 -6.6325 3.7075 -7.3125 2.6875 C-2.88173077 -0.38942308 -2.88173077 -0.38942308 0 0 Z " fill="#72A921" transform="translate(49.3125,14.3125)"></path><path d="M0 0 C1.62806318 3.25612636 0.5312863 6.24678686 -0.1875 9.7109375 C-1 12 -1 12 -3.625 13.625 C-4.800625 13.810625 -4.800625 13.810625 -6 14 C-6 14.66 -6 15.32 -6 16 C-6.66 16 -7.32 16 -8 16 C-8 15.01 -8 14.02 -8 13 C-7.06220703 12.66162109 -7.06220703 12.66162109 -6.10546875 12.31640625 C-3.28553584 10.55329421 -3.10350703 9.11524501 -2.3125 5.9375 C-1.05984556 1.05984556 -1.05984556 1.05984556 0 0 Z " fill="#5E430D" transform="translate(44,70)"></path><path d="M0 0 C0.99 0.33 1.98 0.66 3 1 C2.34 1 1.68 1 1 1 C1.33 2.65 1.66 4.3 2 6 C4.31 6.66 6.62 7.32 9 8 C9.33 7.01 9.66 6.02 10 5 C10.33 5.99 10.66 6.98 11 8 C10.67 8.33 10.34 8.66 10 9 C8.14227838 8.91015699 6.28752015 8.75388139 4.4375 8.5625 C3.42558594 8.46066406 2.41367187 8.35882813 1.37109375 8.25390625 C0.58863281 8.17011719 -0.19382812 8.08632813 -1 8 C-1.04241723 5.66705225 -1.04092937 3.33297433 -1 1 C-0.67 0.67 -0.34 0.34 0 0 Z " fill="#64951C" transform="translate(23,47)"></path><path d="M0 0 C-0.66 2.31 -1.32 4.62 -2 7 C-3.32 7 -4.64 7 -6 7 C-6.6875 5.1875 -6.6875 5.1875 -7 3 C-4.8243318 -0.20624788 -4.07796486 0 0 0 Z " fill="#71A821" transform="translate(30,17)"></path><path d="M0 0 C-0.33 0.99 -0.66 1.98 -1 3 C-4.63 3 -8.26 3 -12 3 C-7.99926171 -1.00073829 -5.50712514 -1.25161935 0 0 Z " fill="#65951B" transform="translate(41,12)"></path><path d="M0 0 C0.66 0 1.32 0 2 0 C1.7451971 1.96048352 1.47063056 3.91840673 1.1875 5.875 C1.03667969 6.96554688 0.88585938 8.05609375 0.73046875 9.1796875 C0 12 0 12 -3 14 C-3.99 14 -4.98 14 -6 14 C-6 13.34 -6 12.68 -6 12 C-5.36578125 11.77570313 -4.7315625 11.55140625 -4.078125 11.3203125 C-1.77983843 10.16214243 -1.77983843 10.16214243 -1.171875 7.6171875 C-1.03265625 6.71226563 -0.8934375 5.80734375 -0.75 4.875 C-0.60046875 3.96492188 -0.4509375 3.05484375 -0.296875 2.1171875 C-0.19890625 1.41851562 -0.1009375 0.71984375 0 0 Z " fill="#775415" transform="translate(44,72)"></path><path d="M0 0 C0.66 0 1.32 0 2 0 C2.2475 0.969375 2.495 1.93875 2.75 2.9375 C3.1625 3.948125 3.575 4.95875 4 6 C6.03243548 6.96877057 6.03243548 6.96877057 8 7 C7.01 7.495 7.01 7.495 6 8 C5.34786708 10.02463255 5.34786708 10.02463255 5 12 C1.35224614 8.11690718 0.41474367 5.28798182 0 0 Z " fill="#44670F" transform="translate(8,39)"></path><path d="M0 0 C1.65 0 3.3 0 5 0 C5 1.65 5 3.3 5 5 C2.03 4.505 2.03 4.505 -1 4 C-0.67 2.68 -0.34 1.36 0 0 Z " fill="#74AB22" transform="translate(19,39)"></path><path d="M0 0 C1.32 0 2.64 0 4 0 C4.13277344 0.84304687 4.26554687 1.68609375 4.40234375 2.5546875 C4.57894531 3.65039062 4.75554688 4.74609375 4.9375 5.875 C5.11152344 6.96554688 5.28554688 8.05609375 5.46484375 9.1796875 C5.85551159 11.93821546 5.85551159 11.93821546 7 14 C6.01 13.67 5.02 13.34 4 13 C3.67 10.03 3.34 7.06 3 4 C2.01 3.67 1.02 3.34 0 3 C0 2.01 0 1.02 0 0 Z " fill="#805A18" transform="translate(46,69)"></path><path d="M0 0 C0.66 0.33 1.32 0.66 2 1 C1.67 3.64 1.34 6.28 1 9 C-0.32 7.68 -1.64 6.36 -3 5 C-1.125 1.125 -1.125 1.125 0 0 Z " fill="#6EA320" transform="translate(19,47)"></path><path d="M0 0 C1.32 0 2.64 0 4 0 C4 1.32 4 2.64 4 4 C2.02 4.33 0.04 4.66 -2 5 C-2 2 -2 2 0 0 Z " fill="#72A921" transform="translate(62,29)"></path><path d="M0 0 C1.32 0.66 2.64 1.32 4 2 C3.67 3.65 3.34 5.3 3 7 C2.01 7.33 1.02 7.66 0 8 C-1.09658936 4.71023192 -0.79953138 3.28696233 0 0 Z " fill="#72A921" transform="translate(67,19)"></path><path d="M0 0 C1.65 0 3.3 0 5 0 C4.625 1.9375 4.625 1.9375 4 4 C3.01 4.495 3.01 4.495 2 5 C1.01 4.67 0.02 4.34 -1 4 C-0.67 2.68 -0.34 1.36 0 0 Z " fill="#75AD23" transform="translate(71,29)"></path><path d="M0 0 C0.99 0.33 1.98 0.66 3 1 C3.33 1.99 3.66 2.98 4 4 C3.01 4.66 2.02 5.32 1 6 C0.01 5.34 -0.98 4.68 -2 4 C-1.34 2.68 -0.68 1.36 0 0 Z " fill="#76AF23" transform="translate(57,17)"></path><path d="M0 0 C2.89932357 2.39509338 3.50168276 4.31245243 4 8 C2.68 8 1.36 8 0 8 C0 5.36 0 2.72 0 0 Z " fill="#547A13" transform="translate(73,18)"></path><path d="M0 0 C1.134375 0.020625 2.26875 0.04125 3.4375 0.0625 C2.1175 1.7125 0.7975 3.3625 -0.5625 5.0625 C-1.5525 4.7325 -2.5425 4.4025 -3.5625 4.0625 C-3.8925 3.0725 -4.2225 2.0825 -4.5625 1.0625 C-3.5625 0.0625 -3.5625 0.0625 0 0 Z " fill="#558016" transform="translate(25.5625,32.9375)"></path><path d="M0 0 C3 1.8125 3 1.8125 6 4 C6 4.99 6 5.98 6 7 C5.01 7 4.02 7 3 7 C3 6.01 3 5.02 3 4 C2.01 4 1.02 4 0 4 C0 2.68 0 1.36 0 0 Z " fill="#563A0C" transform="translate(54,79)"></path><path d="M0 0 C0.33 0 0.66 0 1 0 C1.125 3.375 1.125 3.375 1 7 C0.34 7.66 -0.32 8.32 -1 9 C-3.125 8.625 -3.125 8.625 -5 8 C-4.0409375 7.13375 -4.0409375 7.13375 -3.0625 6.25 C-1.01776132 4.01937599 -0.41794801 2.92563609 0 0 Z " fill="#6DA11F" transform="translate(57,35)"></path><path d="M0 0 C3.3 0.33 6.6 0.66 10 1 C5.88348273 3.05825864 5.13191749 3.34008135 1 2 C0.67 1.34 0.34 0.68 0 0 Z " fill="#588417" transform="translate(37,52)"></path><path d="M0 0 C0.66 0.33 1.32 0.66 2 1 C1.525625 1.37125 1.05125 1.7425 0.5625 2.125 C-1.52205802 4.62646962 -1.64621491 6.81593418 -2 10 C-2.33 10 -2.66 10 -3 10 C-3 7.03 -3 4.06 -3 1 C-2.01 0.67 -1.02 0.34 0 0 Z " fill="#5A8818" transform="translate(17,25)"></path></svg></g></g><defs><clipPath id="SvgjsClipPath1392"><rect width="1000" height="1000" x="0" y="0" rx="350" ry="350"></rect></clipPath></defs></svg></g></svg>