<svg xmlns="http://www.w3.org/2000/svg" width="96" height="96"><path fill="#64961c" d="m42.688 10.813 2.087.001C49.86 10.86 49.86 10.86 51 12l3.688.25c6.67.698 13.411 2.557 19.312 5.75 3 4.782 3 4.782 3 8l1.938 1.688C81.62 30.696 81.628 33.06 82 37l1 1c1.034 15.949 1.034 15.949-3 22-2.187.938-2.187.938-4 1v2l-1.793.516c-5.258 1.605-5.258 1.605-9.77 4.672C60.884 70.83 58.354 70.295 54 70q.212 2.188.438 4.375c.08.812.162 1.624.246 2.46.207 2.208.207 2.208 1.316 4.165 2.017 1.134 2.017 1.134 4 2v3H36v-3l1.922-.617c2.369-1.255 2.369-1.255 2.906-4.203l.422-3.305c.15-1.096.3-2.191.453-3.32L42 69l-5.86.195C33.67 68.97 32.186 68.143 30 67q-2.235-.566-4.5-1c-3.151-.604-5.678-1.46-8.5-3v-3l-1.937-.375L13 59c-1-2-1-2-.875-5.937.168-3.15.168-3.15-1.562-5.626L9 46c-.99-3.816-1.514-5.997.313-9.562L11 34a168 168 0 0 0 2-6c1-2 1-2 4-3a253 253 0 0 0 2-6c2.166-2.692 4.16-3.595 7.438-4.562 3.3-.986 3.3-.986 6.367-2.516 3.238-1.36 6.433-1.172 9.883-1.11"/><path fill="#4e7513" d="m42.688 10.813 2.087.001C49.86 10.86 49.86 10.86 51 12c1.515.232 3.038.412 4.563.563l2.503.253L60 13v1l-8 2v-2c-1.626.114-3.25.242-4.875.375-.905.07-1.81.14-2.742.21-2.562.21-2.562.21-4.383 2.415-2.164.414-2.164.414-4.625.625l-2.477.227L31 18v-2c-4.332.86-4.332.86-8 3-.04 2-.043 4 0 6l-2.375.875c-2.722.974-2.722.974-4.625 3.125-.4 2.323-.74 4.657-1 7l2 1-4 2c1.152 2.468 2.048 4.048 4 6 2.21.243 2.21.243 4.625.125l2.477-.055L26 45l2-4v5l-5 2-1 7 2.813.563C28 57 28 57 29.813 60.563L31 64c1.056 1.279 1.056 1.279 3.469 1.133l3.031-.008 3.031.008c2.413.146 2.413.146 3.469-1.133.37-5.177.37-5.177-1-10h4v-2l1.938-1.312C51.499 48.592 51.652 47.217 52 44l6 1 3-7h1v9l-4 1v2l-2 1.25c-2.341 1.647-2.341 1.647-2.312 4.813.131 2.867.131 2.867 1.312 4.937 7.295.444 7.295.444 14-2 .887-2.041.887-2.041 1-4l2.875.125c3.227.225 3.227.225 5.125-2.125.4-2.323.74-4.657 1-7h-2v-5l-3 1-1-6 5-2v-7c2.782 2.056 3.017 3.098 3.625 6.625L82 37l1 1c1.034 15.949 1.034 15.949-3 22-2.187.938-2.187.938-4 1v2l-1.793.516c-5.258 1.605-5.258 1.605-9.77 4.672C60.884 70.83 58.354 70.295 54 70q.212 2.188.438 4.375c.08.812.162 1.624.246 2.46.207 2.208.207 2.208 1.316 4.165 2.017 1.134 2.017 1.134 4 2v3H36v-3l1.922-.617c2.369-1.255 2.369-1.255 2.906-4.203l.422-3.305c.15-1.096.3-2.191.453-3.32L42 69l-5.86.195C33.67 68.97 32.186 68.143 30 67q-2.235-.566-4.5-1c-3.151-.604-5.678-1.46-8.5-3v-3l-1.937-.375L13 59c-1-2-1-2-.875-5.937.168-3.15.168-3.15-1.562-5.626L9 46c-.99-3.816-1.514-5.997.313-9.562L11 34a168 168 0 0 0 2-6c1-2 1-2 4-3a253 253 0 0 0 2-6c2.166-2.692 4.16-3.595 7.438-4.562 3.3-.986 3.3-.986 6.367-2.516 3.238-1.36 6.433-1.172 9.883-1.11"/><path fill="#5c8a19" d="m64 15 8 2c-4 1-4 1-6 1v9l-3.312.75c-3.703.845-3.703.845-5.063 3.25-2.044 2.516-3.055 2.387-6.187 2.875-2.375.35-2.375.35-4.438 1.125-1.692 2.983-1.692 2.983-2 6h-5l-2 9c4.657.413 4.657.413 8.875-1.187C48.262 46.577 48.65 44.59 49 42h3c.367 6.483.367 6.483-1.375 8.938C49 52 49 52 47 52v2l-3 1 1 1c.273 5.736.273 5.736 0 8-2.576 2.576-3.792 2.356-7.375 2.438-5.208-.09-5.208-.09-8.312-2.688C28 61 28 61 28 57l-1.875-.437C24 56 24 56 22 55v-7l5-2H17v-1l8-1v-6l-3-1-1-3c4.312-.943 8.62-1.48 13-2l1-6 6-1 1-7 8 2 1-3 2 4-8 2-1 4c-3.062 1.25-3.062 1.25-6 2l-1 6c3.3.936 3.3.936 7 1 2.707-2.564 3.824-4.472 5-8l3 3c4.06-2.038 4.06-2.038 6-6l5-1z"/><path fill="#558016" d="m42.688 10.813 2.087.001C49.86 10.86 49.86 10.86 51 12c1.515.232 3.038.412 4.563.563l2.503.253L60 13v1l-8 2v-2c-1.626.114-3.25.242-4.875.375-.905.07-1.81.14-2.742.21-2.562.21-2.562.21-4.383 2.415-2.164.414-2.164.414-4.625.625l-2.477.227L31 18v-2c-4.332.86-4.332.86-8 3-.04 2-.043 4 0 6l-2.375.875c-2.722.974-2.722.974-4.625 3.125-.4 2.323-.74 4.657-1 7l2 1-4 2c1.152 2.468 2.048 4.048 4 6 2.21.243 2.21.243 4.625.125l2.477-.055L26 45l2-4v5l-5 2-1 7 2.813.563C28 57 28 57 29.813 60.563L31 64c1.74 1.74 4.194 1.372 6.563 1.563l3.066.253L43 66l-1 3-3.75.125-2.11.07C33.67 68.97 32.186 68.143 30 67q-2.235-.566-4.5-1c-3.151-.604-5.678-1.46-8.5-3v-3l-1.937-.375L13 59c-1-2-1-2-.875-5.937.168-3.15.168-3.15-1.562-5.626L9 46c-.99-3.816-1.514-5.997.313-9.562L11 34a168 168 0 0 0 2-6c1-2 1-2 4-3a253 253 0 0 0 2-6c2.166-2.692 4.16-3.595 7.438-4.562 3.3-.986 3.3-.986 6.367-2.516 3.238-1.36 6.433-1.172 9.883-1.11"/><path fill="#543c0f" d="M45 60c2.875-.125 2.875-.125 6 0 2.975 2.975 2.684 6.49 3.063 10.5.332 5.415.332 5.415 1.937 10.5 2.017 1.134 2.017 1.134 4 2v3H36v-3l1.898-.512c2.484-1.426 2.484-1.426 3.079-5.008q.35-2.142.648-4.293C42.326 68.577 43.035 64.275 45 60"/><path fill="#5f8e1a" d="M73 18c4.897 4.007 5.286 10.051 6 16-5.825 3.039-10.482 3.354-17 3l-.875 3.375C60 44 60 44 58 46c-2.625-.375-2.625-.375-5-1l1.938-1c3.117-3.023 2.782-5.737 3.062-10l8-1 .438-2.375C67 28 67 28 68 26c3.063-.625 3.063-.625 6-1z"/><path fill="#446610" d="M8 39h2l.75 2.938L12 45c2.032.969 2.032.969 4 1l-2 1c-.113 5.083-.113 5.083 1 10l6 1-1-4 2.313.938c1.875.74 3.774 1.424 5.687 2.062a126 126 0 0 1 3 7c1.74 1.74 4.194 1.372 6.563 1.563l3.066.253L43 66l-1 3-3.75.125-2.11.07C33.67 68.97 32.186 68.143 30 67q-2.235-.566-4.5-1c-3.151-.604-5.678-1.46-8.5-3v-3l-1.937-.375L13 59c-1-2-1-2-.875-5.937.168-3.15.168-3.15-1.562-5.626L9 46c-.687-3.687-.687-3.687-1-7"/><path fill="#45670f" d="m81 54 1 3a91 91 0 0 1-4 4h-2v2l-1.793.516c-5.258 1.605-5.258 1.605-9.77 4.672C60.884 70.83 58.354 70.295 54 70l-1-7 2.887-.043c7.628.004 7.628.004 14.05-3.457L72 57c3.688-.687 3.688-.687 7-1z"/><path fill="#92671c" d="M46 69h4l.402 2.52.535 3.293.528 3.269c.474 2.967.474 2.967 1.535 5.918l3 1v1H41l1-2h2z"/><path fill="#6fa520" d="M61 36c8.398-.195 8.398-.195 11 0 2 2 2 2 2.125 4.625L74 43l-5.86 2.148C66.045 45.983 64.02 46.991 62 48z"/><path fill="#5c8919" d="m64 15 8 2c-4 1-4 1-6 1v9l-3.312.75c-3.703.845-3.703.845-5.063 3.25-2.044 2.516-3.055 2.387-6.187 2.875-2.375.35-2.375.35-4.438 1.125-1.692 2.983-1.692 2.983-2 6h-5v-3l1.75-.687C45.56 35.09 47.62 32.143 49 28l3 3c4.06-2.038 4.06-2.038 6-6l5-1z"/><path fill="#6c4d14" d="M46 66c1.902.305 1.902.305 4 1a62 62 0 0 1 3 7c1.636 4.89 1.636 4.89 5.188 8.438L60 83v3c-4.34-.482-6.272-1.59-9-5-.61-3.016-.61-3.016-.75-6.25l-.172-3.266L50 69h-4l-.184 2.52-.254 3.293c-.08 1.078-.162 2.157-.246 3.269C45 81 45 81 44 84c-3 2-3 2-6 2v-2l1.86-.492c3.347-2.358 3.588-5.828 4.39-9.633l.523-2.285c.424-1.86.828-3.725 1.227-5.59"/><path fill="#73aa22" d="M59.938 50.75C63 51 63 51 66 53c.477 3.723.139 4.792-2 8-4.054.431-5.55.3-9-2-.312-3-.312-3 0-6 2-2 2-2 4.938-2.25"/><path fill="#4e7413" d="M8 39h2l.75 2.938L12 45c2.032.969 2.032.969 4 1l-2 1c-.113 5.083-.113 5.083 1 10l6 1-1-4c2.972 1.125 5.334 2.223 8 4-1 1-1 1-2.848 1.098L19 59v4h-2v-3l-1.937-.375L13 59c-1-2-1-2-.875-5.937.168-3.15.168-3.15-1.562-5.626L9 46c-.687-3.687-.687-3.687-1-7"/><path fill="#71a821" d="m42.164 41.805 2.461.07 2.477.055L49 42c.357 3.209.237 4.64-1.562 7.375C45 51 45 51 41.25 50.75L38 50c-.125-2.875-.125-2.875 0-6 2-2 2-2 4.164-2.195"/><path fill="#71a721" d="M32.625 34.875 36 35c.75 2.188.75 2.188 1 5-1.937 2.813-1.937 2.813-4 5l-5-1c-.625-3.375-.625-3.375-1-7 2-2 2-2 5.625-2.125"/><path fill="#3d5c0e" d="M53 63h12c-1.875 5.875-1.875 5.875-3 7-2.67.141-5.324.042-8 0z"/><path fill="#70a621" d="M38 55h5c.125 2.875.125 2.875 0 6-2 2-2 2-3.945 2.195L33 63l-1-5 2.438-.375L37 57z"/><path fill="#74ac22" d="M55.125 34.875 58 35c.125 3.375.125 3.375 0 7l-2 2h-4l-1-2-3-1c2.777-5.951 2.777-5.951 7.125-6.125"/><path fill="#72a921" d="M33 47c.125 5.75.125 5.75-1 8-6.875-.875-6.875-.875-8-2a100 100 0 0 1 0-5c2.957-1.478 5.742-1.06 9-1"/><path fill="#6da21f" d="M54 16c6.152-.098 6.152-.098 8 0 1 1 1 1 1.063 4.063L63 23c-1.625.688-1.625.688-4 1-3.25-1.437-3.25-1.437-6-3z"/><path fill="#6ba01f" d="M18.848 37.902 25 38v6c-2.709 1.354-5.01 1.065-8 1a129 129 0 0 1-1-6c1-1 1-1 2.848-1.098"/><path fill="#6b9f1f" d="M72.563 27.938 76 28c1.125 4.75 1.125 4.75 0 7-5.75.125-5.75.125-8-1a100 100 0 0 1 0-5c1-1 1-1 4.563-1.062"/><path fill="#61901b" d="M21 48v10l-6-1v-9c2-1 2-1 6 0"/><path fill="#73aa22" d="M34 18c3.125.375 3.125.375 6 1 .125 2.375.125 2.375 0 5l-2 2c-3.125-.375-3.125-.375-6-1-.125-2.375-.125-2.375 0-5zM43 28l3 2c.313 2.5.313 2.5 0 5l-2 2c-2.625-.375-2.625-.375-5-1v-6z"/><path fill="#74ab22" d="m73 46 4 2c-.187 1.875-.187 1.875-1 4-2.437 1.313-2.437 1.313-5 2l-2-1c.313-2.375.313-2.375 1-5z"/><path fill="#4b380c" d="M45 60c2.875-.125 2.875-.125 6 0 2.846 2.846 2.456 5.804 2.625 9.625l.117 2.14c.094 1.745.177 3.49.258 5.235-3.165-4.747-3.11-8.318-3-14h-6z"/><path fill="#699d1e" d="M57 51c2.875-.125 2.875-.125 6 0l2 2h-9zm-2 2h1l1 5c1.837.772 1.837.772 4 1 2.26-1.738 3.398-3.597 5-6 .2 3.716.152 4.772-2 8-4.054.431-5.55.3-9-2-.187-3.125-.187-3.125 0-6"/><path fill="#537d16" d="M61 38h1v9h-3c-3.07.164-3.07.164-6 1-1.15 1.967-1.15 1.967-2 4-2.125.75-2.125.75-4 1l1.938-1.687C51.197 48.779 51.63 47.317 52 44l6 1z"/><path fill="#6d4d12" d="M52 74c2 3 2 3 2.875 5.063C56.245 81.42 57.509 82.003 60 83v3c-2.557-.346-4.575-.75-6.812-2.062C51.237 80.754 51.819 77.676 52 74"/><path fill="#73ab22" d="M31.625 26.875 34 27v5l-8 1c.76-3.803 1.348-5.921 5.625-6.125"/><path fill="#537b15" d="m64 15 8 2c-4 1-4 1-6 1v9h-7c1-2 1-2 4-3z"/><path fill="#70a721" d="M19 27h3c.125 6.75.125 6.75-1 9l-4-1c-.125-2.875-.125-2.875 0-6z"/><path fill="#72a921" d="M49.313 14.313 51 15l-1 5c-2.875.188-2.875.188-6 0l-2-3c4.43-3.077 4.43-3.077 7.313-2.687"/><path fill="#5e430d" d="M44 70c1.628 3.256.531 6.247-.187 9.71C43 82 43 82 40.375 83.626L38 84v2h-2v-3l1.895-.684c2.82-1.763 3.001-3.2 3.792-6.379C42.94 71.06 42.94 71.06 44 70"/><path fill="#64951c" d="m23 47 3 1h-2l1 5 7 2 1-3 1 3-1 1a102 102 0 0 1-5.562-.437l-3.067-.31L22 55q-.062-3.5 0-7z"/><path fill="#71a821" d="m30 17-2 7h-4c-.687-1.812-.687-1.812-1-4 2.176-3.206 2.922-3 7-3"/><path fill="#65951b" d="m41 12-1 3H29c4-4 6.493-4.252 12-3"/><path fill="#775415" d="M44 72h2c-.255 1.96-.53 3.918-.812 5.875l-.458 3.305C44 84 44 84 41 86h-3v-2l1.922-.68c2.298-1.158 2.298-1.158 2.906-3.703l.422-2.742c.15-.91.3-1.82.453-2.758z"/><path fill="#44670f" d="M8 39h2l.75 2.938L12 45c2.032.969 2.032.969 4 1l-2 1c-.652 2.025-.652 2.025-1 4-3.648-3.883-4.585-6.712-5-12"/><path fill="#74ab22" d="M19 39h5v5l-6-1z"/><path fill="#805a18" d="M46 69h4l.402 2.555.535 3.32.528 3.305c.39 2.758.39 2.758 1.535 4.82l-3-1-1-9-3-1z"/><path fill="#6ea320" d="m19 47 2 1-1 8-4-4c1.875-3.875 1.875-3.875 3-5"/><path fill="#72a921" d="M62 29h4v4l-6 1c0-3 0-3 2-5M67 19l4 2-1 5-3 1c-1.097-3.29-.8-4.713 0-8"/><path fill="#75ad23" d="M71 29h5c-.375 1.938-.375 1.938-1 4l-2 1-3-1z"/><path fill="#76af23" d="m57 17 3 1 1 3-3 2-3-2z"/><path fill="#547a13" d="M73 18c2.9 2.395 3.502 4.312 4 8h-4z"/><path fill="#558016" d="M25.563 32.938 29 33l-4 5-3-1-1-3c1-1 1-1 4.563-1.062"/><path fill="#563a0c" d="M54 79c3 1.813 3 1.813 6 4v3h-3v-3h-3z"/><path fill="#6da11f" d="M57 35h1c.125 3.375.125 3.375 0 7l-2 2c-2.125-.375-2.125-.375-4-1l1.938-1.75C55.982 39.02 56.582 37.926 57 35"/><path fill="#588417" d="m37 52 10 1c-4.117 2.058-4.868 2.34-9 1z"/><path fill="#5a8818" d="m17 25 2 1-1.437 1.125C15.478 29.626 15.353 31.815 15 35h-1v-9z"/></svg>